<?xml version="1.0" encoding="utf-8"?>
<!-- Generator: Adobe Illustrator 24.0.1, SVG Export Plug-In . SVG Version: 6.00 Build 0)  -->
<svg version="1.1" id="Layer_1" xmlns="http://www.w3.org/2000/svg" xmlns:xlink="http://www.w3.org/1999/xlink" x="0px" y="0px"
	 viewBox="0 0 400 400" style="enable-background:new 0 0 400 400;" xml:space="preserve">
<style type="text/css">
	.st0{fill:#FFFFFF;}
	.st1{fill:#BEC0C2;}
	.st2{fill:#061922;}
	.st3{fill:#C8102E;}
	.st4{fill:#1D428A;}
</style>
<g>
	<g>
		<path class="st0" d="M21.9,181.8c-3.5,3.2-5.3,7.4-5.3,12.5v92.2c0,5.2,1.8,9.4,5.3,12.7c3.5,3.2,7.9,4.6,13,4.2
			c8.3-0.7,16.5-1.3,24.8-1.9v-17.4c-8.3,0.4-16.5,0.9-24.8,1.4c0-30,0-59.9,0-89.9c8.3,0.5,16.5,1,24.8,1.4v-17.4
			c-8.3-0.6-16.5-1.2-24.8-1.9C29.8,177,25.4,178.4,21.9,181.8"/>
		<path class="st0" d="M81.8,180.9c-6.1-0.4-12.3-0.8-18.4-1.2v121.5c13.4-0.9,26.8-1.7,40.2-2.4v-16.7c-7.3,0.3-14.5,0.5-21.8,0.8
			V180.9z"/>
		<path class="st0" d="M107.3,298.6c6.3-0.3,12.5-0.6,18.8-0.8c0-38.3,0-76.5,0-114.8c-6.3-0.2-12.5-0.5-18.8-0.8V298.6z"/>
		<path class="st0" d="M160.9,184c-10.3-0.2-20.7-0.5-31-0.9v114.6c6.2-0.2,12.3-0.4,18.5-0.6v-48.6c4.2,0,8.4,0,12.5,0
			c5.1,0,9.4-1.6,13-4.7c3.7-3.1,5.5-6.9,5.5-11.4v-32.1c0-4.4-1.8-8.2-5.5-11.3C170.3,185.8,166,184.1,160.9,184 M160.9,232.4
			c-4.2,0-8.4,0-12.5,0V200c4.2,0.1,8.4,0.1,12.5,0.2V232.4z"/>
		<path class="st0" d="M323.9,244c3.6-3.3,5.5-7.4,5.5-12.2v-34.4c0-4.8-1.8-8.7-5.5-11.8c-3.6-3.2-7.9-4.6-13-4.3
			c-10.3,0.6-20.6,1.1-31,1.5V298c6.2,0.2,12.3,0.5,18.5,0.8v-49.6c5.1,16.6,10.2,33.3,15.3,50.4c6.1,0.4,12.3,0.7,18.4,1.1
			c-5.4-17.9-10.7-35.4-16.1-52.6C319,247.5,321.6,246.1,323.9,244 M298.4,198.7c4.2-0.1,8.3-0.3,12.5-0.5c0,11.3,0,22.5,0,33.8
			c-4.2,0-8.3,0.1-12.5,0.1V198.7z"/>
		<path class="st0" d="M214.1,184.4c-10.4,0.1-20.7,0.1-31.1,0v112.2c6.2-0.1,12.3-0.1,18.5-0.1v-48c4.2,0,8.4,0,12.6,0
			c5.1,0,9.4-1.5,13-4.6c3.7-3.1,5.5-6.9,5.5-11.4c0-10.7,0-21.4,0-32.2c0-4.4-1.8-8.2-5.5-11.2
			C223.6,185.8,219.2,184.3,214.1,184.4 M214.1,232.4c-4.2,0-8.4,0-12.6,0v-32c4.2,0,8.4,0,12.6,0V232.4z"/>
		<path class="st0" d="M236.3,296.8c13.5,0.2,26.9,0.6,40.4,1.1v-16.4c-7.3-0.2-14.6-0.4-21.9-0.5v-32.4c4.2,0,11.6,0,15.8,0.1
			c0-5.4,0-10.9,0-16.3c-4.2,0-11.6,0-15.8,0.1v-32.4c7.3-0.1,14.6-0.3,21.9-0.5v-16.4c-13.4,0.5-26.9,0.9-40.4,1.1
			C236.3,221.6,236.3,259.2,236.3,296.8"/>
		<path class="st0" d="M384.4,212.7v-18.4c0-5.1-1.8-9.3-5.4-12.5c-3.5-3.3-7.8-4.7-12.9-4.3c-5.2,0.4-10.3,0.8-15.5,1.2
			s-9.5,2.4-13.1,6.1c-3.5,3.6-5.3,7.7-5.3,12.5v34.5c0,4.9,1.8,8.9,5.3,12.3c3.5,3.4,7.9,5.1,13.1,5.2c5.2,0.1,10.3,0.1,15.5,0.2
			c0,12,0,24,0,36c-5.2-0.3-10.3-0.6-15.5-0.9V267c-6.1-0.2-12.3-0.4-18.4-0.6v17.3c0,4.9,1.8,9,5.3,12.6s7.9,5.6,13.1,6
			s10.3,0.8,15.5,1.2c5.1,0.4,9.4-0.9,12.9-4.2c3.6-3.2,5.4-7.5,5.4-12.7v-36.9c0-5.1-1.8-9.4-5.4-12.9c-3.5-3.6-7.8-5.3-12.9-5.3
			c-5.2,0.1-10.3,0.1-15.5,0.2v-35.3c5.2-0.3,10.3-0.6,15.5-0.9c0,6,0,12,0,18C372.2,213.2,378.3,213,384.4,212.7"/>
	</g>
	<g>
		<path class="st1" d="M36,179.5c7.3,0.6,14.8,1.2,22.5,1.8v-0.7c-7.9-0.6-15.8-1.2-23.7-1.8c-0.6-0.1-1.1-0.1-1.7-0.1
			c-4.1,0-7.5,1.3-10.4,4c-3.3,3-4.9,6.9-4.9,11.6v92.2c0,3.9,1.1,7.2,3.2,9.9c-1.6-2.5-2.4-5.5-2.4-8.8v-92.2c0-4.8,1.7-8.8,5-11.8
			c2.9-2.8,6.4-4.1,10.6-4.1C34.8,179.5,35.4,179.5,36,179.5"/>
		<path class="st1" d="M80.6,182.8V182c-5.3-0.3-10.7-0.7-16-1v118.9l0.8-0.1v-118h0.1C70.4,182.1,75.5,182.4,80.6,182.8"/>
		<path class="st1" d="M124.9,185v-0.8c-5.4-0.2-10.8-0.4-16.3-0.7v113.8h0.8v-113h0.1C114.5,184.5,119.7,184.8,124.9,185"/>
		<path class="st1" d="M161.9,186.1c3.7,0.1,7,1,9.9,2.9c-3.1-2.4-6.8-3.6-11-3.7c-9.9-0.2-19.9-0.5-29.8-0.8v112h0.8V185.2h0.1
			C141.9,185.6,152,185.9,161.9,186.1"/>
		<path class="st1" d="M313.3,183.3c3.3,0,6.2,0.8,8.8,2.4c-2.8-2.2-6.1-3.2-9.9-3.2c-0.4,0-0.8,0-1.2,0c-9.8,0.5-19.8,1-29.8,1.4
			v112.8h0.8v-112h0.1c10.1-0.4,20.2-0.9,29.9-1.4C312.5,183.4,312.9,183.3,313.3,183.3"/>
		<path class="st1" d="M201.6,186.4c4.5,0,9.1,0,13.6,0h0.2c3.8,0,7.1,0.9,9.9,2.7c-3.1-2.4-6.7-3.5-11-3.5h-0.2
			c-4.6,0-9.1,0-13.6,0c-5.3,0-10.8,0-16.2-0.1v109.7h0.8V186.4h0.1C190.7,186.4,196.2,186.4,201.6,186.4"/>
		<path class="st1" d="M275.4,184.2c-12.5,0.5-25.3,0.8-37.9,1.1v110.3h0.8V186.1h0.1c12.2-0.2,24.6-0.6,36.9-1L275.4,184.2
			L275.4,184.2z"/>
		<path class="st1" d="M367.2,179.5c0.6,0,1.1-0.1,1.6-0.1c3,0,5.7,0.7,8,2.2c-2.6-2-5.6-3-9.1-3c-0.5,0-1.1,0-1.6,0.1
			c-5.1,0.4-10.4,0.9-15.5,1.2c-4.8,0.4-9,2.3-12.3,5.7s-5,7.2-5,11.6v34.5c0,3.6,1,6.7,3.2,9.5c-1.6-2.5-2.3-5.2-2.3-8.4v-34.5
			c0-4.5,1.7-8.4,5.1-11.8c3.4-3.5,7.6-5.4,12.5-5.8C356.8,180.4,362.1,180,367.2,179.5"/>
	</g>
	<path class="st0" d="M16.6,323.3c121.8-15.2,246-15.2,367.8,0v-6.4c-121.8-14.1-246-14.1-367.8,0C16.6,316.9,16.6,323.3,16.6,323.3
		z"/>
	<path class="st0" d="M61,340.3c92.1-23.9,186.9-23.9,279,0v-6c-92.1-23.2-186.9-23.2-279,0C61,336.3,61,338.3,61,340.3"/>
	<path class="st0" d="M164,166.3c-49.3-1.2-98.5-4.9-147.4-11v6.4c52,6,104.3,9.4,156.7,10.3C170,170.4,166.9,168.5,164,166.3"/>
	<path class="st0" d="M237,166.3c-2.9,2.2-6.1,4.1-9.4,5.8c52.4-0.9,104.8-4.3,156.7-10.3v-6.4C335.5,161.4,286.3,165.1,237,166.3"
		/>
	<path class="st0" d="M151.7,154c-30.4-2.7-60.7-7.9-90.7-15.7c0,2,0,4,0,6c31.7,8,63.8,13.2,95.9,15.7
		C155.1,158.2,153.3,156.2,151.7,154"/>
	<path class="st0" d="M249.3,154c-1.6,2.1-3.3,4.1-5.2,6c32.2-2.5,64.2-7.7,95.9-15.7v-6C310,146.1,279.7,151.3,249.3,154"/>
	<path class="st0" d="M143.8,117.4c0-31.3,25.4-56.7,56.7-56.7s56.7,25.4,56.7,56.7s-25.4,56.7-56.7,56.7S143.8,148.7,143.8,117.4"
		/>
	<path class="st2" d="M200.5,60.7c-31.3,0-56.7,25.4-56.7,56.7s25.4,56.7,56.7,56.7s56.7-25.4,56.7-56.7S231.8,60.7,200.5,60.7
		 M241.5,85.9c6.5,8.4,10.2,18.4,10.7,29h-21.4C231.3,104.3,235,94.3,241.5,85.9 M159.5,85.9c6.5,8.4,10.2,18.4,10.7,29h-21.4
		C149.4,104.3,153,94.3,159.5,85.9 M159.5,148.9c-6.5-8.4-10.2-18.4-10.7-29h21.4C169.7,130.4,166,140.5,159.5,148.9 M203,169v-14.8
		h-5V169c-13.5-0.6-25.9-6.4-35.2-16.3c7.6-9.5,11.8-20.8,12.4-32.9v-5c-0.5-12.1-4.8-23.4-12.4-32.9c9.3-9.9,21.7-15.6,35.2-16.3
		v14.7h5V65.7c13.5,0.6,25.9,6.4,35.2,16.3c-7.6,9.5-11.8,20.8-12.4,32.9v5c0.5,12.1,4.8,23.4,12.4,32.9
		C228.9,162.6,216.4,168.4,203,169 M241.5,148.9c-6.5-8.4-10.2-18.4-10.7-29h21.4C251.6,130.4,248,140.5,241.5,148.9"/>
	<polygon class="st3" points="187.9,93.6 187.9,140.9 213.1,140.9 213.1,134.4 194.6,134.4 194.6,93.6 	"/>
	<path class="st4" d="M221.7,109.5V90c0-2.9-1.2-4.1-4.1-4.1h-34.4c-2.8,0-4,1.2-4,4.1v54.8c0,2.9,1.2,4.1,4,4.1h34.4
		c2.9,0,4.1-1.2,4.1-4.1v-19.5h-6.8v17.6H186v-51h28.9v17.6C214.9,109.5,221.7,109.5,221.7,109.5z"/>
	<path class="st3" d="M213.1,132.6v-39h-16.4l-0.2,39h6.6l0.1-12.1h3.3v12.1H213.1z M206.5,114h-3.3v-13.9h3.3V114z"/>
</g>
</svg>
