<?xml version="1.0" encoding="utf-8"?>
<!-- Generator: Adobe Illustrator 24.0.1, SVG Export Plug-In . SVG Version: 6.00 Build 0)  -->
<svg version="1.1" id="Layer_1" xmlns="http://www.w3.org/2000/svg" xmlns:xlink="http://www.w3.org/1999/xlink" x="0px" y="0px"
	 viewBox="0 0 400 400" style="enable-background:new 0 0 400 400;" xml:space="preserve">
<style type="text/css">
	.st0{fill:#FFFFFF;}
	.st1{fill:none;stroke:#FFFFFF;stroke-width:1.7706;stroke-miterlimit:40;}
	.st2{fill:#CE1141;}
	.st3{fill:none;stroke:#CE1141;stroke-width:0.4433;}
</style>
<path class="st0" d="M333.5,163.1c-1.1-19.4-9.8-36.7-14.9-47.1l-0.6-1.2l-2.3-4.5l0.5,5c0.6,6.9,2.2,30.6-4.9,44.1
	c-8.8,18.2-34.5,16.4-43,15.9h-0.6c-13.9-0.9-59.1-2.5-73-2.5c-18.3,0.1-38.5,1.6-54.8,2.8c-8,0.6-14.8,1.1-19.5,1.3
	c-0.4,0-0.9,0.1-1.7,0.1c-22.8,2.1-37.2-4.6-42.8-20c-3.4-9.4-3.4-28.1-3.3-37v-2.7v-3.8l-1.8,3.3c-4.3,7.9-12.2,22.7-14.9,47.1
	c-1.5,28.8,13.5,39.2,24.9,44.4c11.9,5.5,24.1,6.3,28.1,6.6h0.3h-0.1c0.8,0.2,1.8,0.2,2.7,0.2c1.2,0.1,2.6,0.1,3.9,0.4
	c-2.2,0.4-5,0.9-7.5,1.3c-2.7,0.5-5.2,0.9-6.5,1.2c-2.7,0.6-14.2,3.2-20.3,5.4c-5.2,1.8-10.9,4.5-11,4.5l-1,0.5l0.7,0.9
	c0.1,0.1,2,2.7,3.9,4.7c4,4,15.3,11.1,28.8,9.4c10.8-1.3,16.7-3.9,18.9-5c0.7,2.3,2.4,7.7,4.1,11.9c4.9,12.1,16,35.3,20.2,43.3
	c3.4,6.5,6.7,12.3,9,16.1l0.8,1.4c-0.7,2.5-2.5,4-3.8,5.2c-0.4,0.3-0.6,0.6-0.9,0.8l-0.2,0.3v0.4c-0.1,2.2-0.6,22.4,13.1,37.1
	l0.1,0.2l0.2,0.1c6.8,2.6,15.7,5.3,30,5.3c14.6,0,26.9-3.5,31.2-5.6l0.2-0.1l0.1-0.1c9.5-11.3,13.9-28.3,14-34.4v-0.4l-0.3-0.3
	c-0.2-0.2-0.5-0.5-0.7-0.7c-1.5-1.4-3.3-3.2-4.4-7.4c1.2-2,3.4-6.8,5.3-10.6c1-2.2,1.9-4,2.4-5c4-7.9,15.8-33.2,20.5-45.1
	c3-7.6,4.6-11.3,5.3-12.9c2.1,1.1,7.7,3.6,18.2,4.7c13.7,1.4,26.7-7.7,30.3-12.7c0.6-0.8,1.6-2,1.7-2.1l0.8-1l-1.1-0.5
	c-0.1,0-0.5-0.2-2.6-0.9l-7.6-2.5l-7.5-2.5c-2.1-0.7-11.3-2.7-18-4.2l-5.1-1.1l1.7-0.3C294.4,211.5,335.9,204.2,333.5,163.1"/>
<path class="st1" d="M333.5,163.1c-1.1-19.4-9.8-36.7-14.9-47.1l-0.6-1.2l-2.3-4.5l0.5,5c0.6,6.9,2.2,30.6-4.9,44.1
	c-8.8,18.2-34.5,16.4-43,15.9h-0.6c-13.9-0.9-59.1-2.5-73-2.5c-18.3,0.1-38.5,1.6-54.8,2.8c-8,0.6-14.8,1.1-19.5,1.3
	c-0.4,0-0.9,0.1-1.7,0.1c-22.8,2.1-37.2-4.6-42.8-20c-3.4-9.4-3.4-28.1-3.3-37v-2.7v-3.8l-1.8,3.3c-4.3,7.9-12.2,22.7-14.9,47.1
	c-1.5,28.8,13.5,39.2,24.9,44.4c11.9,5.5,24.1,6.3,28.1,6.6h0.3h-0.1c0.8,0.2,1.8,0.2,2.7,0.2c1.2,0.1,2.6,0.1,3.9,0.4
	c-2.2,0.4-5,0.9-7.5,1.3c-2.7,0.5-5.2,0.9-6.5,1.2c-2.7,0.6-14.2,3.2-20.3,5.4c-5.2,1.8-10.9,4.5-11,4.5l-1,0.5l0.7,0.9
	c0.1,0.1,2,2.7,3.9,4.7c4,4,15.3,11.1,28.8,9.4c10.8-1.3,16.7-3.9,18.9-5c0.7,2.3,2.4,7.7,4.1,11.9c4.9,12.1,16,35.3,20.2,43.3
	c3.4,6.5,6.7,12.3,9,16.1l0.8,1.4c-0.7,2.5-2.5,4-3.8,5.2c-0.4,0.3-0.6,0.6-0.9,0.8l-0.2,0.3v0.4c-0.1,2.2-0.6,22.4,13.1,37.1
	l0.1,0.2l0.2,0.1c6.8,2.6,15.7,5.3,30,5.3c14.6,0,26.9-3.5,31.2-5.6l0.2-0.1l0.1-0.1c9.5-11.3,13.9-28.3,14-34.4v-0.4l-0.3-0.3
	c-0.2-0.2-0.5-0.5-0.7-0.7c-1.5-1.4-3.3-3.2-4.4-7.4c1.2-2,3.4-6.8,5.3-10.6c1-2.2,1.9-4,2.4-5c4-7.9,15.8-33.2,20.5-45.1
	c3-7.6,4.6-11.3,5.3-12.9c2.1,1.1,7.7,3.6,18.2,4.7c13.7,1.4,26.7-7.7,30.3-12.7c0.6-0.8,1.6-2,1.7-2.1l0.8-1l-1.1-0.5
	c-0.1,0-0.5-0.2-2.6-0.9l-7.6-2.5l-7.5-2.5c-2.1-0.7-11.3-2.7-18-4.2l-5.1-1.1l1.7-0.3C294.4,211.5,335.9,204.2,333.5,163.1z"/>
<path d="M333.5,163.1c-1.1-19.4-9.8-36.7-14.9-47.1l-0.6-1.2l-2.3-4.5l0.5,5c0.6,6.9,2.2,30.6-4.9,44.1c-8.8,18.2-34.5,16.4-43,15.9
	h-0.6c-13.9-0.9-59.1-2.5-73-2.5c-18.3,0.1-38.5,1.6-54.8,2.8c-8,0.6-14.8,1.1-19.5,1.3c-0.4,0-0.9,0.1-1.7,0.1
	c-22.8,2.1-37.2-4.6-42.8-20c-3.4-9.4-3.4-28.1-3.3-37v-2.7v-3.8l-1.8,3.3c-4.3,7.9-12.2,22.7-14.9,47.1
	c-1.5,28.8,13.5,39.2,24.9,44.4c11.9,5.5,24.1,6.3,28.1,6.6h0.3h-0.1c0.8,0.2,1.8,0.2,2.7,0.2c1.2,0.1,2.6,0.1,3.9,0.4
	c-2.2,0.4-5,0.9-7.5,1.3c-2.7,0.5-5.2,0.9-6.5,1.2c-2.7,0.6-14.2,3.2-20.3,5.4c-5.2,1.8-10.9,4.5-11,4.5l-1,0.5l0.7,0.9
	c0.1,0.1,2,2.7,3.9,4.7c4,4,15.3,11.1,28.8,9.4c10.8-1.3,16.7-3.9,18.9-5c0.7,2.3,2.4,7.7,4.1,11.9c4.9,12.1,16,35.3,20.2,43.3
	c3.4,6.5,6.7,12.3,9,16.1l0.8,1.4c-0.7,2.5-2.5,4-3.8,5.2c-0.4,0.3-0.6,0.6-0.9,0.8l-0.2,0.3v0.4c-0.1,2.2-0.6,22.4,13.1,37.1
	l0.1,0.2l0.2,0.1c6.8,2.6,15.7,5.3,30,5.3c14.6,0,26.9-3.5,31.2-5.6l0.2-0.1l0.1-0.1c9.5-11.3,13.9-28.3,14-34.4v-0.4l-0.3-0.3
	c-0.2-0.2-0.5-0.5-0.7-0.7c-1.5-1.4-3.3-3.2-4.4-7.4c1.2-2,3.4-6.8,5.3-10.6c1-2.2,1.9-4,2.4-5c4-7.9,15.8-33.2,20.5-45.1
	c3-7.6,4.6-11.3,5.3-12.9c2.1,1.1,7.7,3.6,18.2,4.7c13.7,1.4,26.7-7.7,30.3-12.7c0.6-0.8,1.6-2,1.7-2.1l0.8-1l-1.1-0.5
	c-0.1,0-0.5-0.2-2.6-0.9l-7.6-2.5l-7.5-2.5c-2.1-0.7-11.3-2.7-18-4.2l-5.1-1.1l1.7-0.3C294.4,211.5,335.9,204.2,333.5,163.1"/>
<path class="st2" d="M71,121.5c-0.5,10.7-0.4,22.4,2.1,32.6c-2.3-2.1-4.6-4.5-7-6.5c-2.1,2.4-4.1,4.9-6.3,7.2
	C62.1,143,65.8,132.1,71,121.5L71,121.5L71,121.5z"/>
<path class="st3" d="M71,121.5c-0.5,10.7-0.4,22.4,2.1,32.6c-2.3-2.1-4.6-4.5-7-6.5c-2.1,2.4-4.1,4.9-6.3,7.2
	C62.1,143,65.8,132.1,71,121.5L71,121.5L71,121.5z"/>
<path class="st2" d="M329.3,150l0.7,2.9l-5.6-4c-2.5,1.1-4.9,2.7-7.3,3.8c1.7-10.2,2.2-20.9,1.5-31.8C323.6,130,326.3,140,329.3,150
	"/>
<path class="st3" d="M329.3,150l0.7,2.9l-5.6-4c-2.5,1.1-4.9,2.7-7.3,3.8c1.7-10.2,2.2-20.9,1.5-31.8C323.6,130,326.3,140,329.3,150
	z"/>
<path class="st2" d="M194.9,251.4c5.9,9,16.5,11.5,26.4,9c3.7-0.7,7.2-2.2,10.6-3.7c-3.1,9.4-5.3,19.8-5,30.4
	c0,9.3,1.6,18.1,4.4,26.5c-1.4-0.4-2.8-1.5-4.4-2.2c-19.6-9.9-47.3-9.5-66.6,0.7c0.9-3.1,1.9-6.5,2.6-9.7c3-14.9,0.8-30.5-4.3-44.1
	c10.5,4.4,25.7,5.3,34.1-4.3C193.5,253.1,194.1,252.1,194.9,251.4"/>
<path class="st3" d="M194.9,251.4c5.9,9,16.5,11.5,26.4,9c3.7-0.7,7.2-2.2,10.6-3.7c-3.1,9.4-5.3,19.8-5,30.4
	c0,9.3,1.6,18.1,4.4,26.5c-1.4-0.4-2.8-1.5-4.4-2.2c-19.6-9.9-47.3-9.5-66.6,0.7c0.9-3.1,1.9-6.5,2.6-9.7c3-14.9,0.8-30.5-4.3-44.1
	c10.5,4.4,25.7,5.3,34.1-4.3C193.5,253.1,194.1,252.1,194.9,251.4z"/>
<path class="st2" d="M151.1,258.8c-0.4,4.2-1.9,8.9-6.3,10.5c-3.7,1-7-1-9.4-3.6c-1-1.3-1.9-2.7-2.2-4.3c5.6,3.6,12.9,0.7,17.8-2.7
	L151.1,258.8z"/>
<path class="st3" d="M151.1,258.8c-0.4,4.2-1.9,8.9-6.3,10.5c-3.7,1-7-1-9.4-3.6c-1-1.3-1.9-2.7-2.2-4.3c5.6,3.6,12.9,0.7,17.8-2.7
	L151.1,258.8z"/>
<path class="st2" d="M256.6,259.3c-1.3,3.8-4.6,7.6-8.5,8.5c-3,0.4-5.7-1-7.4-3.6c-0.9-1.4-1.5-2.9-1.8-4.7
	C244,263.4,251.7,262.5,256.6,259.3"/>
<path class="st3" d="M256.6,259.3c-1.3,3.8-4.6,7.6-8.5,8.5c-3,0.4-5.7-1-7.4-3.6c-0.9-1.4-1.5-2.9-1.8-4.7
	C244,263.4,251.7,262.5,256.6,259.3z"/>
<path class="st2" d="M245.7,270.1c2.1,0.4,4.2-0.1,6.2-0.7c-5.6,13.9-12.3,27.4-19.2,40.7c-2.4-6.6-1.8-13.9-1.4-21.3
	c1-9,3.2-17.6,5.8-25.9C238.9,266.2,242,269.6,245.7,270.1"/>
<path class="st3" d="M245.7,270.1c2.1,0.4,4.2-0.1,6.2-0.7c-5.6,13.9-12.3,27.4-19.2,40.7c-2.4-6.6-1.8-13.9-1.4-21.3
	c1-9,3.2-17.6,5.8-25.9C238.9,266.2,242,269.6,245.7,270.1z"/>
<path class="st2" d="M158.2,310l-0.1,0.1c-8.4-12.8-14.8-26.3-20.9-40c2.8,1.5,7.3,2.5,10.2,0.5c2.8-1.9,4.4-4.9,5.4-8
	C159.6,276.4,161.2,294.4,158.2,310"/>
<path class="st3" d="M158.2,310l-0.1,0.1c-8.4-12.8-14.8-26.3-20.9-40c2.8,1.5,7.3,2.5,10.2,0.5c2.8-1.9,4.4-4.9,5.4-8
	C159.6,276.4,161.2,294.4,158.2,310z"/>
<path class="st2" d="M237.1,320.9c-1.4,12-5.7,22.6-13.3,31.9c-17.5,6.8-41,7.5-58.5,0.1c-8.5-9.3-11.7-21.3-12.2-34.1
	c18.5-13.5,47.5-16.5,68.7-6.8C227.2,314.5,232.4,317.1,237.1,320.9"/>
<path class="st3" d="M237.1,320.9c-1.4,12-5.7,22.6-13.3,31.9c-17.5,6.8-41,7.5-58.5,0.1c-8.5-9.3-11.7-21.3-12.2-34.1
	c18.5-13.5,47.5-16.5,68.7-6.8C227.2,314.5,232.4,317.1,237.1,320.9z"/>
<path class="st2" d="M308.9,224.6c-14.5-5.5-33.2-8.8-49.1-9.2c-1.5-17.7-3.5-28.8-7-38.8c-8.2-0.5-44.4-1.9-58.4-1.9
	s-49.6,2.2-57.7,2.7c-3.3,9.5-7,21.4-8.8,38.9c-16,0.9-37.6,5.5-52.2,11c-2.2,0.8-3.1,1.6-3.2,1.5c2.2,2.5,10.3,12.2,25.4,12.6
	c4.8,0.1,13.8-0.8,19.6-3.4c1.6-0.7,4.9-2.1,4.9-2.1s1.1,2,1.6,3.4c1.6,4.5,3.6,11,5,13.8c2.1,4.2,5.5,7.5,10.9,7.6
	c5,0.1,8.6-4,9.1-4.8c-14.1-0.7-20-8.3-20.9-19.6c-3.3-0.6-4.3-0.9-4.7-2.7c-0.4-1.8,0.1-3.7,1.5-5.9c1.6-2.1,4.3-4.2,11-2.1
	c4.4,1.4,7.9,4.2,10.4,6.4c2.9,2.6,11.4,11.4,16.5,14.4c5.4,3.2,15.8,6.1,22.5-0.5c6.5-6.4,7.2-11.8,8.1-15.2
	c-11.3-0.3-21.9-1.4-31.7-2.8c-2.9-0.4-1.6-3.1,0.6-2.5c0,0,18.5,2.4,31.5,2.5c0.1-1.5,0.1-4.2,0.2-7.1c-7.7-0.2-20.6-1-32.9-3.5
	c-2.5-0.5-2-3.3,0.3-2.7c1.8,0.5,21.9,3.3,32.6,3.3c0-2.3,0.1-5.6,0.1-8.7c-7.1,0-17.4-0.6-32.3-2.9c-2.6-0.4-2.1-2.8,0-2.6
	c0,0,18.4,2.7,32.3,2.6c0-2.1,0-4.6,0-7.1c0-2.8,2.4-2.9,2.4-0.2c0,1,0.1,3.7,0.1,7.2c13.3-0.4,25-2,30.4-2.9c3.2-0.6,2.9,2,1.4,2.3
	c-1.8,0.3-17.2,3.3-31.9,3.6c0,2.6,0.1,5.9,0.1,8.7c9.8-0.4,21.2-0.7,31-2.9c3.7-0.8,4,2,0.9,2.5c-9.6,1.6-23.4,3.2-31.8,3.3
	c0.1,2.4,0.1,5.3,0.2,7.2c15.7-0.4,30.6-2.6,33.1-3c2.6-0.4,3.1,2.3,0.4,2.7c-2.8,0.4-21.2,2.8-33,3.1c1.2,4,1.4,9.8,7.1,14.7
	c5.5,4.8,14.9,4.3,21.5,0.5c5.1-3,13.3-11.9,16.2-14.5c2.4-2.1,8.1-7.4,15.8-7.3c7.6,0.2,7.7,4.1,8.1,5.2c0.4,1.2,0.7,3.3-1,4.4
	c-1.4,0.8-2.6,0.6-3.9,1.2c-1,6.2-2.9,13.2-7.8,16.9c-5.3,4-13.5,4.5-13.5,4.5s1.1,1.3,1.5,1.6c0.9,0.8,3.7,2.2,7.3,1.9
	c3.4-0.3,7.4-2.9,9-4.6c2.5-3.3,4.9-10.2,6.7-14.7c0.7-1.7,2.2-4.7,2.7-6c1.6,0.7,2.3,1.2,5.2,2.3c5.9,2.4,13.6,3.4,18.4,3.2
	c7.8-0.2,16.7-4.9,22-9.9c0.9-0.9,2.7-3,2.7-3S310.3,225.1,308.9,224.6"/>
<path class="st3" d="M308.9,224.6c-14.5-5.5-33.2-8.8-49.1-9.2c-1.5-17.7-3.5-28.8-7-38.8c-8.2-0.5-44.4-1.9-58.4-1.9
	s-49.6,2.2-57.7,2.7c-3.3,9.5-7,21.4-8.8,38.9c-16,0.9-37.6,5.5-52.2,11c-2.2,0.8-3.1,1.6-3.2,1.5c2.2,2.5,10.3,12.2,25.4,12.6
	c4.8,0.1,13.8-0.8,19.6-3.4c1.6-0.7,4.9-2.1,4.9-2.1s1.1,2,1.6,3.4c1.6,4.5,3.6,11,5,13.8c2.1,4.2,5.5,7.5,10.9,7.6
	c5,0.1,8.6-4,9.1-4.8c-14.1-0.7-20-8.3-20.9-19.6c-3.3-0.6-4.3-0.9-4.7-2.7c-0.4-1.8,0.1-3.7,1.5-5.9c1.6-2.1,4.3-4.2,11-2.1
	c4.4,1.4,7.9,4.2,10.4,6.4c2.9,2.6,11.4,11.4,16.5,14.4c5.4,3.2,15.8,6.1,22.5-0.5c6.5-6.4,7.2-11.8,8.1-15.2
	c-11.3-0.3-21.9-1.4-31.7-2.8c-2.9-0.4-1.6-3.1,0.6-2.5c0,0,18.5,2.4,31.5,2.5c0.1-1.5,0.1-4.2,0.2-7.1c-7.7-0.2-20.6-1-32.9-3.5
	c-2.5-0.5-2-3.3,0.3-2.7c1.8,0.5,21.9,3.3,32.6,3.3c0-2.3,0.1-5.6,0.1-8.7c-7.1,0-17.4-0.6-32.3-2.9c-2.6-0.4-2.1-2.8,0-2.6
	c0,0,18.4,2.7,32.3,2.6c0-2.1,0-4.6,0-7.1c0-2.8,2.4-2.9,2.4-0.2c0,1,0.1,3.7,0.1,7.2c13.3-0.4,25-2,30.4-2.9c3.2-0.6,2.9,2,1.4,2.3
	c-1.8,0.3-17.2,3.3-31.9,3.6c0,2.6,0.1,5.9,0.1,8.7c9.8-0.4,21.2-0.7,31-2.9c3.7-0.8,4,2,0.9,2.5c-9.6,1.6-23.4,3.2-31.8,3.3
	c0.1,2.4,0.1,5.3,0.2,7.2c15.7-0.4,30.6-2.6,33.1-3c2.6-0.4,3.1,2.3,0.4,2.7c-2.8,0.4-21.2,2.8-33,3.1c1.2,4,1.4,9.8,7.1,14.7
	c5.5,4.8,14.9,4.3,21.5,0.5c5.1-3,13.3-11.9,16.2-14.5c2.4-2.1,8.1-7.4,15.8-7.3c7.6,0.2,7.7,4.1,8.1,5.2c0.4,1.2,0.7,3.3-1,4.4
	c-1.4,0.8-2.6,0.6-3.9,1.2c-1,6.2-2.9,13.2-7.8,16.9c-5.3,4-13.5,4.5-13.5,4.5s1.1,1.3,1.5,1.6c0.9,0.8,3.7,2.2,7.3,1.9
	c3.4-0.3,7.4-2.9,9-4.6c2.5-3.3,4.9-10.2,6.7-14.7c0.7-1.7,2.2-4.7,2.7-6c1.6,0.7,2.3,1.2,5.2,2.3c5.9,2.4,13.6,3.4,18.4,3.2
	c7.8-0.2,16.7-4.9,22-9.9c0.9-0.9,2.7-3,2.7-3S310.3,225.1,308.9,224.6z"/>
<path d="M224.6,322.8c1.4,2.7,0.3,5.8-1.3,8.1c-3,3.7-7.5,5.2-12.2,4c-2.6-0.9-5.2-2.5-6.7-5.1c-0.7,2.3,0.9,3.9,0.8,6
	c-0.3,0.4-1,0.5-1.3,0.1c-2.5-3.3-3.5-8.4-1.3-12.2c2.7-5.1,8.1-7.2,13.6-6.6C219.6,317.7,223,319.5,224.6,322.8"/>
<path class="st3" d="M224.6,322.8c1.4,2.7,0.3,5.8-1.3,8.1c-3,3.7-7.5,5.2-12.2,4c-2.6-0.9-5.2-2.5-6.7-5.1c-0.7,2.3,0.9,3.9,0.8,6
	c-0.3,0.4-1,0.5-1.3,0.1c-2.5-3.3-3.5-8.4-1.3-12.2c2.7-5.1,8.1-7.2,13.6-6.6C219.6,317.7,223,319.5,224.6,322.8z"/>
<path d="M186,324.5c2.2,3.7,1.2,8.6-0.9,12c-0.3,0.5-0.8,1.1-1.5,0.6c-0.9-1.2,0.4-2.2,0.5-3.3c0.1-0.9,0.4-1.9,0.1-2.8
	c-3,4.1-7.4,6.1-12.4,5.2c-3.5-0.7-6.7-3.4-8-6.8c-0.7-2.2-0.4-4.8,1-6.6c3.3-4.4,9.3-5.5,14.4-3.8
	C181.9,319.9,184.6,321.9,186,324.5"/>
<path class="st3" d="M186,324.5c2.2,3.7,1.2,8.6-0.9,12c-0.3,0.5-0.8,1.1-1.5,0.6c-0.9-1.2,0.4-2.2,0.5-3.3c0.1-0.9,0.4-1.9,0.1-2.8
	c-3,4.1-7.4,6.1-12.4,5.2c-3.5-0.7-6.7-3.4-8-6.8c-0.7-2.2-0.4-4.8,1-6.6c3.3-4.4,9.3-5.5,14.4-3.8
	C181.9,319.9,184.6,321.9,186,324.5z"/>
<path d="M224.3,348.8c-0.4,0.8-0.6,0.8-1.2,1.6c-1.8-0.5-3.7-1.2-5.5-1.9c-16-6.1-36.4-4.4-51.5,1.9c-0.4-0.4-0.7-0.8-0.9-1.5
	C182.7,341,206.7,340.1,224.3,348.8"/>
<path class="st3" d="M224.3,348.8c-0.4,0.8-0.6,0.8-1.2,1.6c-1.8-0.5-3.7-1.2-5.5-1.9c-16-6.1-36.4-4.4-51.5,1.9
	c-0.4-0.4-0.7-0.8-0.9-1.5C182.7,341,206.7,340.1,224.3,348.8z"/>
<path d="M227.2,263.8c-2.7,12.6-10.7,27.1-24,30.8c-10.6,2.8-22.5,0.6-29.6-8.2c-5.2-6.4-7.7-13.8-8.5-22.1c0.5-0.4,1-0.4,1.6-0.4
	c1.1,12,7.3,25.2,19.3,28.9c10.3,3.3,22.6,0.3,30.1-8.8c4.7-6.1,7.8-13.4,9.5-20.9C226.2,263.2,226.6,263.3,227.2,263.8"/>
<path class="st3" d="M227.2,263.8c-2.7,12.6-10.7,27.1-24,30.8c-10.6,2.8-22.5,0.6-29.6-8.2c-5.2-6.4-7.7-13.8-8.5-22.1
	c0.5-0.4,1-0.4,1.6-0.4c1.1,12,7.3,25.2,19.3,28.9c10.3,3.3,22.6,0.3,30.1-8.8c4.7-6.1,7.8-13.4,9.5-20.9
	C226.2,263.2,226.6,263.3,227.2,263.8z"/>
<path class="st0" d="M69.8,43c-2.3-2-5.6-3.4-9.1-3.2c-3.6,0.1-17.3,4.7-17.3,25s12.3,26.8,19.7,26.8S78,86,80.4,76.1
	c0.4-1.4,0.1-1.6-1.3-2.3L74.3,72c-1.1-0.4-1.2-0.4-1.9,1.6c-0.5,1.3-2.6,7.2-7.5,7.2s-7.1-7.3-7.1-14.9s1.3-14.8,7.4-14.8
	s7.4,6.5,7.8,8.9c0.2,1,0.3,1.1,1.5,1.1H79c0.9,0,0.9-0.1,0.9-2.2V42.4c0-1.1-0.2-1.1-2-1.1h-4c-0.8,0-0.8,0.2-1.4,1.3
	C72.1,43.3,71.2,44.2,69.8,43"/>
<path class="st0" d="M252.4,51.1l9.3,29.3c0.5,1.3,0.5,1.4,1.2,1.4h1.4c1.5,0,1.5,0.1,1.5,1.3v5.6c0,1.9-0.1,1.9-1.1,1.9h-18.4
	c-1.5,0-1.5-0.1-1.5-1.2v-5.8c-0.1-1.7,0.1-1.8,1.3-1.8h1.8c1,0,1-0.2,0.6-1.4l-1.4-4.4c-0.4-0.9-0.6-0.9-1.7-0.9h-11.2l2.4-6.7h6.8
	c1.2,0,1.3-0.1,1-1l-4.1-12.9c-0.2-0.8-0.5-0.8-0.7-0.1l-4.2,13c-0.3,1-0.2,1,1.3,1l-2.4,6.7c-1.3,0-1.3,0-1.6,0.9l-1.4,4.4
	c-0.4,1.3-0.4,1.4,0.4,1.4h1.9c1.3,0,1.3,0.2,1.3,1.8v5.8c0,1.1-0.1,1.2-1.5,1.2h-12.7c-1.1,0-1.1-0.1-1.1-1.9v-5.5
	c0-1.2,0.1-1.3,1.5-1.3h1.2c0.8,0,1.1-0.4,1.3-1l9.5-29.6c0.3-0.8,0.3-1-1.2-1h-1.7c-1.4,0-1.5-0.1-1.5-1.3v-5.9
	c0-1.7,0.1-1.7,2.1-1.7h24.5c1.4,0,1.5,0.2,1.5,1.8v5.5c0,1.3-0.1,1.3-1.9,1.3H253C252.1,49.9,252.1,50.2,252.4,51.1"/>
<path class="st0" d="M296.7,73.3h3.2c1.5,0,1.5,0.2,1.5,1.1c0,2.8-2.1,6.4-7.4,6.4c-4.9,0-7.1-7.3-7.1-14.9s1.3-14.8,7.4-14.8
	c5.1,0,7.2,3.7,7.8,6c0.2,1,0.2,1.1,1.5,1.1h4.5c0.9,0,0.9-0.1,0.9-2.2V42.4c0-1.1-0.1-1.1-2-1.1h-4c-0.8,0-0.9,0.1-1.4,1.3
	c-0.3,0.7-1.3,1.6-2.7,0.4c-2.3-2-5.7-3.4-9.1-3.2c-3.6,0.1-17.3,4.7-17.3,25s12.2,26.8,19.7,26.8c11.2,0,19.9-8.4,19.9-24.5
	c0-1.6-0.2-1.7-2.4-1.7h-13.3c-1.3,0-1.4,0.1-1.4,1.6v5.3C295,73.3,295.1,73.3,296.7,73.3"/>
<path class="st0" d="M339.7,41.1c-12.1,0-21.9,11.4-21.9,25.4s9.8,25.3,21.9,25.3s21.9-11.3,21.9-25.3S351.8,41.1,339.7,41.1
	l-0.1,9.1c4.5,0,8.2,7.3,8.2,16.3s-3.6,16.3-8.2,16.3c-4.5,0-8.2-7.3-8.2-16.3s3.7-16.3,8.2-16.3L339.7,41.1z"/>
<path class="st0" d="M94.1,80.7V51.4c0-1-0.1-1.2-1.2-1.2h-1.4C90,50.2,90,50,90,49.1v-6.5c0-1.1,0.1-1.3,1.8-1.3H109
	c1.3,0,1.5,0.1,1.5,1.4v5.9c0,1.3-0.2,1.3-1.5,1.3h-0.9c-0.8,0-0.9,0-0.8,1.1v8.4c0,2.1,0,2.3,1.8,2.3h9.2c1.8,0,1.8-0.1,1.8-2.3V51
	c0-1.1-0.1-1.1-0.8-1.1h-0.9c-1.5,0-1.6-0.1-1.6-1.3v-5.9c0-1.3,0.2-1.4,1.5-1.4h17.2c1.8,0,1.8,0.1,1.8,1.3v6.5
	c0,1-0.1,1.1-1.5,1.1h-1.5c-1.1,0-1.1,0.1-1.1,1.2v29.3c0,1.1,0.1,1.1,1.4,1.1h1.5c1.2,0,1.2,0.1,1.2,1.8v5.8c0,1,0,1.2-1.5,1.2
	h-18.2c-1.2,0-1.2,0-1.2-1.9v-5.6c-0.1-1.3,0-1.3,1.5-1.3h0.9c1.1,0,1.1-0.1,1.1-1.3v-9c0-2.2-0.1-2.3-1.6-2.3h-9.2
	c-1.5,0-1.6,0.2-1.6,2.3v9c0,1.3,0,1.3,1.1,1.3h0.9c1.5,0,1.5,0.1,1.5,1.3v5.6c0,1.9,0,1.9-1.2,1.9H91.5c-1.5,0-1.5,0-1.5-1.2v-5.8
	c0-1.7,0.1-1.8,1.2-1.8h1.5C94.1,81.8,94.1,81.8,94.1,80.7"/>
<path class="st0" d="M150.2,51.1c0-1.1-0.1-1.1-0.8-1.1h-1.7c-1.5,0-1.6-0.1-1.6-1.3v-6c0-1.3,0.2-1.4,1.5-1.4h17.2
	c1.8,0,1.8,0.1,1.8,1.3v6.5c0,1-0.1,1.1-1.5,1.1h-0.8c-1.1,0-1.1,0.1-1.1,1.2v29.3c0,1.1,0.1,1.1,1.4,1.1h1.2c1.2,0,1.2,0.1,1.2,1.8
	v5.8c0,1,0,1.2-1.5,1.2h-18.2c-1.2,0-1.2,0-1.2-1.9v-5.6c-0.1-1.3,0-1.3,1.5-1.3h1.4c1.1,0,1.2,0,1.2-1.2L150.2,51.1L150.2,51.1z"/>
<path class="st0" d="M200.2,43c-2.3-2-5.7-3.4-9.1-3.2c-3.6,0.1-17.3,4.7-17.3,25s12.2,26.8,19.7,26.8c7.4,0,14.9-5.6,17.3-15.5
	c0.4-1.4,0.1-1.6-1.3-2.3l-4.8-1.8c-1.1-0.4-1.2-0.4-1.9,1.6c-0.5,1.3-2.6,7.2-7.5,7.2s-7.1-7.3-7.1-14.9s1.3-14.8,7.4-14.8
	c6.1,0,7.4,6.5,7.8,8.9c0.2,1,0.3,1.1,1.5,1.1h4.5c0.9,0,0.9-0.1,0.9-2.2V42.4c0-1.1-0.2-1.1-2-1.1h-4c-0.8,0-0.8,0.2-1.4,1.3
	C202.5,43.3,201.6,44.2,200.2,43"/>
<path class="st0" d="M91.3,113.9v29c0,1-0.2,1.1-1.2,1.1h-1.6c-1.2,0-1.4,0.2-1.3,1.6v6c0,1.1,0.2,1.2,1.5,1.2h26.8l-9.1-9.3
	c-1.9,0-2,0-2-1.9v-8.4c0-1.6,0.1-1.7,2-1.7v-7.6c-2,0-2-0.1-2-1.7v-8.5c0-1.7,0.1-1.8,1.8-1.8c1.8,0,8.8,0.2,8.8,6.3
	s-6.5,5.8-8.6,5.8v7.6c1.8,0,8.6,0.2,8.6,6.3c0,6-6.5,5.8-8.6,5.8l9.1,9.3c6.7,0,11.7-6,11.7-12.9s-4.4-9.6-7.9-12.1
	c2.5-2,6.9-4.8,6.9-11.8c0-7.6-7.6-12.5-12.2-12.5H89.3c-2,0-2.1,0.1-2.1,1.6v6.3c0,1,0.1,1.1,1.5,1.1h1.6
	C91.3,112.4,91.3,112.6,91.3,113.9"/>
<path class="st0" d="M173,113.4v25.1c0,6.4-3.3,15.8-16,15.8s-18.8-9.4-18.8-15.8v-25.1c0-1.1-0.2-1.1-1.1-1.1h-1.5
	c-1.5,0-1.5-0.1-1.5-1.3v-5.7c0-1.9,0.2-1.9,1.9-1.9h17.1c1.3,0,1.5,0.1,1.5,1.6v5.7c0,1.3-0.1,1.3-1.9,1.3h-1.4
	c-0.8,0-0.9,0.1-0.9,1.1v24.4c0,2.8,2.1,7.2,7.4,7.2c6.1,0,7.4-4.7,7.4-7.2v-24.2c0-1.3-0.1-1.3-1.3-1.3h-1.2
	c-1.5,0-1.7-0.1-1.7-1.3V105c0-1.4,0-1.6,1.5-1.6h12.7c2.1,0,2.1,0,2.1,1.7v5.9c0,1.3,0,1.3-1.5,1.3h-1.7
	C173.1,112.4,173,112.4,173,113.4"/>
<path class="st0" d="M232.7,144H231c-1.2,0-1.3,0.2-1.3,1.8v5.8c0,1.2,0.1,1.2,1.5,1.2h31.5c1.4,0,1.5,0,1.5-1.9v-14.2
	c0-1.3-0.1-1.3-1.5-1.3h-4.6c-1.4,0-1.5,0.1-1.5,1.8v5c0,1.9-0.2,2-1.5,2h-7c-2.1,0-2.2-0.2-2.2-1.5v-28.5c0-1.9,0-2,1.1-2h1.7
	c1.4,0,1.4-0.1,1.4-1.3v-5.5c0-1.7,0-1.8-1.5-1.8h-16.9c-2.1,0-2.1,0.1-2.1,1.7v5.9c0,1.2,0.1,1.3,1.5,1.3h1.4
	c1.2,0,1.2,0.1,1.2,1.8v28.4C233.8,143.9,233.7,144,232.7,144"/>
<path class="st0" d="M305.8,139.1c0,10.5-9.8,14.9-14,14.9c-3.1,0-6.7-1.3-9.1-3.2c-1.4-1.2-2.8,0.2-3.2,0.8
	c-0.7,1.2-0.8,1.3-1.4,1.3h-2c-2.1,0-2,0-2-1.1v-13.6c0-2.2,0.1-2.2,0.9-2.2h3.1c1.2,0,1.2,0.1,1.5,1.1c0.8,2.7,3.8,6.7,8.9,6.7
	c2.4,0,4.4-0.6,4.4-2.8c0-4.6-2.7-5.7-7.5-8.2s-12.1-5.4-12.1-15.9s9.5-14.8,13.8-14.8c3.1,0,6.4,1.3,8.7,3.3
	c1.4,1.2,2.8-0.2,3.2-0.8c0.8-1.3,0.8-1.3,1.4-1.3h2.1c1.9,0,2,0,2,1.1V118c0,2.1,0,2.2-0.9,2.2h-3.1c-1.2,0-1.2-0.1-1.5-1.1
	c-0.8-2.7-4.3-6.7-9.4-6.7c-2.1,0-3.3,1.3-3.3,3.2c0,2.9,3.2,5.4,8.7,8.1C300.4,126.3,305.8,130.4,305.8,139.1"/>
<path class="st0" d="M188.9,144h-1.7c-1.2,0-1.3,0.2-1.3,1.8v5.8c0,1.2,0.1,1.2,1.5,1.2h31.5c1.4,0,1.5,0,1.5-1.9v-14.2
	c0-1.3-0.1-1.3-1.5-1.3h-4.6c-1.4,0-1.5,0.1-1.5,1.8v5c0,1.9-0.2,2-1.5,2h-7c-2.1,0-2.2-0.2-2.2-1.5v-28.5c0-1.9,0-2,1.1-2h1.7
	c1.4,0,1.4-0.1,1.4-1.3v-5.5c0-1.7,0-1.8-1.5-1.8h-16.9c-2.1,0-2.1,0.1-2.1,1.7v5.9c0,1.2,0.1,1.3,1.5,1.3h1.4
	c1.2,0,1.2,0.1,1.2,1.8v28.4C190,143.9,189.9,144,188.9,144"/>
<path class="st0" d="M75.8,162.3c6.9,13.3,20.8,17.6,35,16.9c7.9-0.1,15.5-0.9,23.3-1.4v0.5c-4,11.2-6.6,22.6-8.2,34.4
	c-20.5,0.8-41.5-0.9-56.6-14.6c-10.3-10.4-12.9-24.7-10.6-38.9c2.4-2.9,5-5.3,7.5-8.2C69.6,154.6,74.9,157.5,75.8,162.3"/>
<path class="st0" d="M330.6,156.4c0.5,2.1,0.6,4,0.8,6.2c1,15.8-5.8,30.3-19.3,38.3c-14.7,8.9-31.7,11.9-49.8,12.4
	c-0.3-1.6-0.5-3.7-0.7-5.5c-1.4-10.4-3.4-20.8-6.3-30.8c19.3-0.2,42.8,4.9,55.6-12.9c1.7-2.5,3.4-4.7,4.9-7.4
	c2.9-1.3,5.6-3.1,8.4-4.6C326.6,153.2,328.3,155.1,330.6,156.4"/>
<path class="st0" d="M257.2,236.2c0.1,6.1-1.9,12.3-7.3,15.2c-2.5,1.4-5.5,1.9-8.3,1.8c-0.1-0.5-0.3-1.2-0.1-1.8
	c4.4,0.1,8.7-1.5,11-5.1c1.6-2.7,2.2-5.7,2.3-9.1C255.5,236.7,256.3,236.4,257.2,236.2"/>
<path class="st0" d="M148.1,252.6c-0.8,0.1-1.2,0.3-2.7,0c-7.1,0-14.6-5.7-14.1-15.3c0.8-0.3,1.8-0.2,2.7,0.1c0,5.5,2.2,13,13.8,13
	C148.6,251.6,147.8,251.7,148.1,252.6"/>
</svg>
