<?xml version="1.0" encoding="utf-8"?>
<!-- Generator: Adobe Illustrator 24.0.1, SVG Export Plug-In . SVG Version: 6.00 Build 0)  -->
<svg version="1.1" id="Layer_2" xmlns="http://www.w3.org/2000/svg" xmlns:xlink="http://www.w3.org/1999/xlink" x="0px" y="0px"
	 viewBox="0 0 400 400" style="enable-background:new 0 0 400 400;" xml:space="preserve">
<style type="text/css">
	.st0{fill:#FFFFFF;}
	.st1{fill:#E03A3E;}
</style>
<g>
	<g>
		<path d="M261.8,82.1c-2.4-3.6-5.2-7-8.3-10c-1.3-1.3-2.7-2.6-4.2-3.8L279.6,38h-88l-34,34l0,0c0,0-0.1,0.1-0.1,0.1
			c-3.1,3.1-5.9,6.5-8.3,10c-2.5,3.6-4.6,7.5-6.3,11.5c-3.5,8.4-5.3,17.3-5.3,26.4c0,9.2,1.8,18.1,5.3,26.4c1.7,4,3.8,7.9,6.3,11.5
			c2.4,3.6,5.2,7,8.3,10c1.3,1.3,2.7,2.6,4.2,3.8l-30.2,30.2h88l34.1-34.1h0c3-3.1,5.8-6.4,8.2-10c2.5-3.6,4.6-7.5,6.3-11.5
			c3.5-8.4,5.3-17.3,5.3-26.4c0-9.2-1.8-18.1-5.3-26.4C266.4,89.6,264.3,85.7,261.8,82.1"/>
		<path class="st0" d="M249.6,75.9c-1.3-1.3-2.7-2.6-4.1-3.8l-36.9,36.9c1.8,0.5,3.5,1.5,5,2.9l0,0c4.5,4.5,4.5,11.7,0,16.2
			l-68.4,68.4h8l64.4-64.4c6.7-6.7,6.7-17.4,0.1-24.1l4-4c8.8,8.9,8.8,23.3-0.1,32.1l-60.4,60.4h8l56.4-56.4
			c11.1-11.1,11.1-29,0.1-40.1l4-4c13.3,13.3,13.2,34.9-0.1,48.2l-52.4,52.4h8l48.4-48.4c15.5-15.5,15.5-40.6,0.1-56.2l4-4
			c17.7,17.7,17.7,46.5-0.1,64.2l-44.4,44.4h8l40.4-40.4c19.9-19.9,20-52.2,0.1-72.2l4-4c22.1,22.2,22.1,58.1-0.1,80.3l-36.3,36.3h8
			l32.3-32.3l0,0C273.9,139.9,273.9,100.3,249.6,75.9"/>
		<path class="st1" d="M161.6,164.2c1.3,1.3,2.7,2.6,4.1,3.8l36.9-36.9c-1.8-0.5-3.5-1.5-5-2.9c0,0,0,0,0,0
			c-4.5-4.5-4.5-11.7,0-16.2l68.5-68.5h-8l-64.5,64.5c-6.7,6.7-6.7,17.4-0.1,24.1l-4,4c-8.8-8.9-8.8-23.3,0.1-32.1l60.5-60.5h-8
			l-56.5,56.5c-11.1,11.1-11.1,29-0.1,40.1l-4,4c-13.3-13.3-13.2-34.9,0.1-48.2l52.5-52.5h-8l-48.5,48.5
			c-15.5,15.5-15.5,40.6-0.1,56.2l-4,4c-17.7-17.7-17.7-46.5,0.1-64.2L218,43.4h-8l-40.5,40.5c-19.9,19.9-20,52.2-0.1,72.2l-4,4
			c-22.1-22.2-22.1-58.1,0.1-80.3L202,43.4h-8l-32.4,32.4l0,0C137.2,100.3,137.2,139.8,161.6,164.2"/>
	</g>
	<g>
		<g>
			<polygon class="st0" points="95.3,339.7 90.9,339.7 90.9,335.4 104.4,335.4 104.4,339.7 100,339.7 100,361 95.3,361 			"/>
			<path class="st0" d="M118.5,346.9l1-1.1v-5.6l-1-1.1h-3.2v7.8H118.5z M110.5,335.4h10.6l3.1,3.1v9l-2.6,2.5l2.9,11h-4.8
				l-2.6-10.4h-1.9V361h-4.8V335.4z"/>
			<path class="st0" d="M135.6,351.1h3.1l-1.6-12.7L135.6,351.1z M133.8,335.4h7l3.9,25.6H140l-0.7-5.9h-4.1l-0.7,5.9h-4.5
				L133.8,335.4z"/>
			<polygon class="st0" points="150.1,357.4 152.9,357.4 152.9,339.1 150.1,339.1 150.1,335.4 160.6,335.4 160.6,339.1 157.7,339.1 
				157.7,357.4 160.6,357.4 160.6,361 150.1,361 			"/>
			<polygon class="st0" points="167.2,335.4 172,335.4 172,356.8 177.5,356.8 177.5,361 167.2,361 			"/>
			<path class="st0" d="M201.6,357.2l1-1V351l-1.2-1.2h-2.8v7.4H201.6z M201.4,346l1.2-1.2v-4.5l-1-1h-2.9v6.8H201.4z M193.9,335.4
				h10.4l3.1,3.1v6.8l-2.6,2.6l2.6,2.6v7.4l-3.1,3.1h-10.4V335.4z"/>
			<polygon class="st0" points="214.5,335.4 219.3,335.4 219.3,356.8 224.7,356.8 224.7,361 214.5,361 			"/>
			<path class="st0" d="M235.7,351.1h3.1l-1.6-12.7L235.7,351.1z M233.9,335.4h7l3.9,25.6h-4.7l-0.7-5.9h-4.1l-0.7,5.9H230
				L233.9,335.4z"/>
			<polygon class="st0" points="250.2,357.5 256.6,339.7 250.3,339.7 250.3,335.4 261.9,335.4 261.9,338.9 255.4,356.7 261.9,356.7 
				261.9,361 250.2,361 			"/>
			<polygon class="st0" points="268.5,335.4 279.7,335.4 279.7,339.6 273.3,339.6 273.3,345.9 279.1,345.9 279.1,350.1 273.3,350.1 
				273.3,356.8 279.8,356.8 279.8,361 268.5,361 			"/>
			<path class="st0" d="M294.7,346.9l1-1.1v-5.6l-1-1.1h-3.2v7.8H294.7z M286.7,335.4h10.6l3.1,3.1v9l-2.6,2.5l2.9,11H296l-2.6-10.4
				h-1.9V361h-4.8V335.4z"/>
			<polygon class="st0" points="306.8,357.9 306.8,353.3 311.6,353.3 311.6,356 312.7,357.1 314.4,357.1 315.4,356 315.4,351.1 
				314.6,350.3 309.6,350.3 307,347.6 307,338.6 310.1,335.4 317,335.4 320.1,338.6 320.1,343.1 315.4,343.1 315.4,340.4 
				314.3,339.4 312.8,339.4 311.7,340.4 311.7,345.2 312.5,346 317.5,346 320.2,348.6 320.2,357.9 317.1,361 310,361 			"/>
		</g>
		<g>
			<path class="st0" d="M37.5,229.9h3.4c3.4,0,5.7,1.2,5.7,5v21.9c0,3.7-1.1,5.6-6.4,5.6h-2.6V229.9z M61.8,237.5
				c0-14.8-8-19.8-23.7-19.8h-12h-3.8H10.1l12.2,12.2v89.2h15.1v-44.5h0.8c15.3,0,23.2-4.7,23.6-18.7l0,0V237.5z"/>
			<path class="st0" d="M87.9,319.1c9.4,0,19.8-3.8,19.8-17.1v-67.3c0-13.2-10.4-17.1-19.8-17.1c-9.3,0-19.6,3.8-19.6,17.1V302
				C68.2,315.3,78.6,319.1,87.9,319.1 M83.3,236c0-5.1,1.6-6.3,4.7-6.3c3,0,4.6,1.1,4.6,6.3v64.7c0,5.1-1.6,6.3-4.6,6.3
				c-3.1,0-4.7-1.1-4.7-6.3V236z"/>
			<path class="st0" d="M263.6,286.7h9.9l3.2,32.4H292l-11.5-101.4h-22.7l-11.5,101.4h13.7L263.6,286.7z M268.4,235.5h0.9l2.9,39
				h-7.2L268.4,235.5z"/>
			<path class="st0" d="M388.9,300.7v-60.1c0-17.8-6.3-22.9-21.2-22.9h-18.2v101.4H371C382.6,319.1,388.9,310.4,388.9,300.7
				 M373.8,299.4c0,6.6-1.9,7.5-5.7,7.5h-3.6v-77.1h3.6c3.8,0,5.7,1,5.7,7.6V299.4z"/>
			<path class="st0" d="M129.3,274.5c7-0.3,9.3,2.1,9.3,8.3c0,20.5,0,36.4,0,36.4h14.8c0,0,0.3-10.9,0-40.2
				c-0.1-9.1-5.8-10.5-5.8-10.5c6.6-2.9,5.9-6.1,5.9-13.7l-0.1-19.6c0-13.1-7.1-17.4-19.3-17.4l-20,0v101.4h15.2V274.5z
				 M129.2,229.8h3.6c3.4,0,5.7,1.2,5.7,5l0,21c0,3.7-1.1,6.5-6.4,6.5h-2.9V229.8z"/>
			<polygon class="st0" points="239.8,306.9 220.5,306.9 220.5,217.7 205.4,217.7 205.4,319.1 239.8,319.1 			"/>
			<polygon class="st0" points="170.8,229.9 170.8,319.1 185.9,319.1 185.9,229.9 199,229.9 199,217.7 149.3,217.7 161.5,229.9 			
				"/>
			<polygon class="st0" points="312.1,262.8 329.2,319.1 329.3,319.1 343,319.1 343,217.7 329.3,217.7 329.3,274.5 312.1,217.7 
				312,217.7 298.4,217.7 298.4,319.1 312.1,319.1 			"/>
		</g>
	</g>
</g>
</svg>
