<?xml version="1.0" encoding="utf-8"?>
<!-- Generator: Adobe Illustrator 24.0.1, SVG Export Plug-In . SVG Version: 6.00 Build 0)  -->
<svg version="1.1" id="Layer_2" xmlns="http://www.w3.org/2000/svg" xmlns:xlink="http://www.w3.org/1999/xlink" x="0px" y="0px"
	 viewBox="0 0 400 400" style="enable-background:new 0 0 400 400;" xml:space="preserve">
<style type="text/css">
	.st0{fill:#5D76A9;}
	.st1{fill:#12173F;}
	.st2{fill:#707271;}
	.st3{fill:#FFBB22;}
</style>
<g>
	<path class="st0" d="M123.2,339c0-3.6-2.9-6.5-6.5-6.5h-12.2v23h5.4v-7.2h5c1.6,0,2.9,1.3,2.9,2.9v4.2h5.4v-4.2
		c0-1.9-0.6-3.6-1.7-5c1.2-1.2,1.9-2.8,1.9-4.7V339L123.2,339L123.2,339z M116.7,337.8c0.6,0,1.2,0.5,1.2,1.2v2.6
		c0,0.7-0.6,1.4-1.4,1.4h-6.7v-5.1h6.9V337.8z"/>
	<polygon class="st0" points="243.9,355.5 224.8,355.5 224.8,332.5 230.2,332.5 230.2,350.1 243.9,350.1 	"/>
	<polygon class="st0" points="297,337.8 297,332.5 277.9,332.5 277.9,355.5 297,355.5 297,350.1 283.3,350.1 283.3,346.4 
		295.1,346.4 295.1,341 283.3,341 283.3,337.8 	"/>
	<polygon class="st0" points="176.4,355.5 155.7,355.5 167.6,337.8 157,337.8 157,332.5 177.6,332.5 165.8,350.1 176.4,350.1 	"/>
	<polygon class="st0" points="209.7,355.5 189,355.5 200.8,337.8 190.2,337.8 190.2,332.5 210.9,332.5 199,350.1 209.7,350.1 	"/>
	<rect x="257.2" y="332.5" class="st0" width="5.4" height="23"/>
	<rect x="137.5" y="332.5" class="st0" width="5.4" height="23"/>
	<rect x="137.5" y="332.5" class="st0" width="5.4" height="23"/>
	<g>
		<path class="st0" d="M228.6,282.1H209v42.1h9.7v-13.6h9.9c6.5,0,11.8-5.3,11.8-11.8v-5C240.4,287.4,235.1,282.1,228.6,282.1z
			 M230.7,298.8c0,1.2-1,2.1-2.1,2.1h-9.9v-9.2h9.9c1.2,0,2.1,1,2.1,2.1V298.8z"/>
	</g>
	<path class="st1" d="M214.2,324.2h-0.8v-37.7h15.1c4.1,0,7.4,3.3,7.4,7.4v5c0,4.1-3.3,7.4-7.4,7.4h-14.3V324.2z M214.2,305.4h14.3
		c3.6,0,6.6-2.9,6.6-6.6v-5c0-3.6-2.9-6.6-6.6-6.6h-14.3V305.4z"/>
	<polygon class="st0" points="153.6,291.7 153.6,282.1 121.6,282.1 121.6,324.2 153.6,324.2 153.6,314.5 131.3,314.5 131.3,308 
		150.1,308 150.1,298.3 131.3,298.3 131.3,291.7 	"/>
	<polygon class="st1" points="153.6,287.3 153.6,286.5 126.1,286.5 126.1,319.8 153.6,319.8 153.6,319 126.9,319 126.9,303.5 
		150.1,303.5 150.1,302.7 126.9,302.7 126.9,287.3 	"/>
	<path class="st0" d="M192,282.1h-33.4v42.1h9.7v-32.4h8.1v32.4h9.7v-32.4h6c1.2,0,2.1,1,2.1,2.1v30.3h9.7v-30.3
		C203.8,287.4,198.5,282.1,192,282.1"/>
	<path class="st1" d="M192,286.5h-29v37.7h0.8v-36.8h17v36.9h0.8v-36.9H192c3.6,0,6.6,2.9,6.6,6.6v30.3h0.8V294
		C199.4,289.8,196,286.5,192,286.5"/>
	<path class="st0" d="M104.6,282.1H71.2v42.1h9.7v-32.4H89v32.4h9.7v-32.4h6c1.2,0,2.1,1,2.1,2.1v30.3h9.7v-30.3
		C116.4,287.4,111.1,282.1,104.6,282.1"/>
	<path class="st1" d="M104.6,286.5h-29v37.7h0.8v-36.8h17v36.9h0.8v-36.9h10.4c3.6,0,6.6,2.9,6.6,6.6v30.3h0.8V294
		C112,289.8,108.7,286.5,104.6,286.5"/>
	<rect x="282.6" y="282.1" class="st0" width="9.7" height="42.1"/>
	<rect x="287" y="282.1" class="st1" width="0.8" height="42.1"/>
	<polygon class="st0" points="266.6,282.1 266.6,298.3 254.6,298.3 254.6,282.1 244.9,282.1 244.9,324.2 254.6,324.2 254.6,308 
		266.6,308 266.6,324.2 276.3,324.2 276.3,282.1 	"/>
	<polygon class="st1" points="271,282.1 271,302.7 250.1,302.7 250.1,282.1 249.3,282.1 249.3,324.2 250.1,324.2 250.1,303.5 
		271,303.5 271,324.2 271.9,324.2 271.9,282.1 	"/>
	<path class="st0" d="M90,355.5H77.7c-3.6,0-6.5-2.9-6.5-6.5v-9.9c0-3.6,2.9-6.5,6.5-6.5h5.7c3.6,0,6.5,2.9,6.5,6.5v1.1h-5.4v-1.1
		c0-0.6-0.5-1.2-1.2-1.2h-5.7c-0.6,0-1.2,0.5-1.2,1.2v9.9c0,0.6,0.5,1.2,1.2,1.2h6.9v-2.1h-3.2v-5.4h8.5v12.8H90z"/>
	<path class="st0" d="M90,355.5H77.7c-3.6,0-6.5-2.9-6.5-6.5v-9.9c0-3.6,2.9-6.5,6.5-6.5h5.7c3.6,0,6.5,2.9,6.5,6.5v1.1h-5.4v-1.1
		c0-0.6-0.5-1.2-1.2-1.2h-5.7c-0.6,0-1.2,0.5-1.2,1.2v9.9c0,0.6,0.5,1.2,1.2,1.2h6.9v-2.1h-3.2v-5.4h8.5v12.8H90z"/>
	<path class="st0" d="M323.1,355.5h-5.7c-3.6,0-6.5-2.9-6.5-6.5v-0.8h5.4v0.8c0,0.6,0.5,1.2,1.2,1.2h5.7c0.6,0,1.2-0.5,1.2-1.2v-1
		l-9.9-2.6c-2.1-0.6-3.5-2.5-3.5-4.7v-1.4c0-3.7,3-6.7,6.7-6.7h5.6c3.6,0,6.5,2.9,6.5,6.5v1.1h-5.4v-1.1c0-0.6-0.5-1.2-1.2-1.2h-5.6
		c-0.7,0-1.3,0.6-1.3,1.3v1.1l9.9,2.6c2.1,0.6,3.5,2.5,3.5,4.7v1.3C329.7,352.6,326.7,355.5,323.1,355.5"/>
	<path class="st0" d="M317.9,324.1H298v-13.4h9.7v3.7h10.2c1.2,0,2.2-1,2.2-2.2v-1.9l-15.8-4.9c-3.7-1.2-6.3-4.6-6.3-8.5v-3
		c0-6.6,5.3-11.9,11.9-11.9h19.9v13.9h-9.7v-4.2h-10.2c-1.2,0-2.2,1-2.2,2.2v2.4l15.7,4.8c3.8,1.2,6.3,4.6,6.3,8.6v2.5
		C329.8,318.8,324.5,324.1,317.9,324.1"/>
	<path class="st1" d="M317.9,319.7h-15.4v-9h0.8v8.2h14.6c3.7,0,6.6-3,6.6-6.6v-2.5c0-1.6-1.1-3.1-2.6-3.6l-16.3-5
		c-1.9-0.6-3.1-2.3-3.1-4.2v-3c0-4.1,3.3-7.5,7.5-7.5h15.4v9.5h-0.8v-8.7H310c-3.7,0-6.6,3-6.6,6.6v3c0,1.6,1,3,2.6,3.5l16.3,5
		c1.9,0.6,3.2,2.3,3.2,4.3v2.5C325.4,316.4,322,319.7,317.9,319.7"/>
	<path class="st2" d="M302.8,95.3c2.9-5.5,4.3-11,4.3-16.3c0-12-6.7-22.7-16.1-29.1c-13.1-8.9-32.7-10.1-46.6,6.5
		c-20.3-2.8-37.3,2.8-43.8,5.5c-6.5-2.7-23.5-8.2-43.8-5.5c-13.9-16.6-33.6-15.4-46.6-6.5C100.8,56.3,94.1,67,94.1,79
		c0,5.3,1.4,10.8,4.3,16.3c-10.5,15.1-17.7,33.1-17.7,51.4c0,22,9.4,33.3,12.9,38.2c0,0,1.5-1.5,2.8-2.8c10,25.3,27,39,47.6,51.4
		c0,0,0.5-2.5,0.9-4.7c22.2,19.2,32.7,14.5,55.7,40.5c22.9-25.9,33.8-21.5,55.7-40.5c0.4,2.2,0.9,4.7,0.9,4.7
		c9.2-5.5,35-19.4,47.6-51.4c1.3,1.3,2.8,2.8,2.8,2.8c2.2-3,12.9-15,12.9-38.2C320.6,128.4,313.3,110.5,302.8,95.3"/>
	<path class="st1" d="M296.5,95.7c21.1-32.4-26.8-66.2-50-33.5c-23.5-4.2-43.2,4.4-45.9,5.6c-2.6-1.2-22.4-9.8-45.9-5.6
		c-23.2-32.7-71.1,1.1-50,33.5c-24.1,33.1-21.6,65.7-10.5,81l4.6-4.6c0,0,6.6,31.9,41.2,52.8l1.2-6.9c21.3,22.8,40.8,22.3,59.3,43.1
		c18.4-20.8,37.9-20.3,59.3-43.1l1.2,6.9c34.7-20.9,41.2-52.8,41.2-52.8l4.6,4.6C318.2,161.3,320.6,128.7,296.5,95.7"/>
	<path class="st0" d="M200.8,216.9c0,0-16.7,0.3-19.1,1.8c0,0-2.9,5,19.1,4.9c20.9-0.1,17.8-3.9,18-4.5
		C218.8,219.1,211.7,216.9,200.8,216.9"/>
	<path class="st0" d="M186.4,197.6c0,0,2.6-7.5,5.4-5.1c3.8,3.3,8.9,10,8.9,10.7v9l-6.1,0.3c-3.5,0.1-14.7,2.8-14.7,2.8
		c-15.5-38.3-6.9-67.4-2.8-77.7c-15.3,3.3-17.8-15.1-17.8-15.1c1.6-0.3,3.9,0.4,6.6,1.6c4.1,2,8.9,5.3,12.8,8.3l0,0
		c1.1,0.9,2.2,1.7,3.1,2.5c10.4,8.8,18.9,7,18.9,7v37.5C200.6,179.4,170.2,177,186.4,197.6"/>
	<path class="st0" d="M214.9,197.6c19.4-19.7-12.2-18.5-14.2-18.2C204,179.6,228.5,179.7,214.9,197.6"/>
	<path class="st0" d="M227.8,138.1c17.4,47-4.7,77.2-4.8,77.4c13.7-35.9,4.9-65.8-1.1-76.9c-3.1,0.3-6.8,0.1-6.8,0.1
		s4.6-2.9,7.6-5.6c0.2-0.2,0.4-0.4,0.7-0.6c2.5-2.2,7.3-6.1,13-8.4l0,0c2.1-0.8,4.4-1.4,6.7-1.7
		C243.2,122.4,241.5,137.9,227.8,138.1"/>
	<path class="st0" d="M255.4,77.3c0,0,7.1-17.8,28.9-13.5c0,0-20-13.2-33.9,10.6c0,0-20-9.4-49.8,3.5c0,0-28-9.8-49.3-4.3
		c0,0-12.4-21.5-29.9-12.7c-17.5,8.9-8.4,29.4-5.3,34.7c0,0-29,29.5-18.1,66l5.8-7.3c0,0,8.3,39.7,29.8,52.3l1.3-9.8
		c0,0,22.4,27,48.8,38.5c2.5,1.2,16.5,8.1,16.9,11.5v-18.9c0,0-18.3,1.5-23.1-6.9c-3.3-5.7-24.3-43.2-13.9-82.5
		c0,0-10.1-1.5-12-18.6c0,0-7.5-3.7-16.9-2.9c0,0,16.8-5.3,32.5,0.8c15.7,6.1,19.9,21.6,30.6,14.7l2.9-43.6l3.2,43.6
		c10.6,6.8,14.9-8.6,30.6-14.7S267,117,267,117s-6.7-4.7-17.5-6.9c-9-1.8-22.2,4-22.2,4s1.8-12.4,7.8-19
		C240.2,89.7,251.8,88.4,255.4,77.3z M119.9,92.4c-0.6-5.9,6.9-11.8,6.9-11.8c-3.1-3.2-8.5-0.4-8.5-0.4c4.9-9.6,15.9-4.9,15.9-4.9
		c-4.2-5.1-13-4.8-13-4.8c10.9-10.8,24.1,5.7,24.1,5.7C133.5,78.8,119.9,92.4,119.9,92.4z"/>
	<path class="st3" d="M178.6,132.3c-1.7-0.5-4.5,1.2-6,4.2c-5.2-1.5-7-7.1-6.8-12.5l0,0C169.9,126,174.8,129.3,178.6,132.3"/>
	<path class="st3" d="M229.8,136.6c-1.6-3.2-4.6-4.9-6.3-4.1c2.5-2.2,7.3-6.1,13-8.4l0,0C236.8,129.5,234.9,135.1,229.8,136.6"/>
</g>
</svg>
