<?xml version="1.0" encoding="utf-8"?>
<!-- Generator: Adobe Illustrator 24.0.1, SVG Export Plug-In . SVG Version: 6.00 Build 0)  -->
<svg version="1.1" id="Layer_2" xmlns="http://www.w3.org/2000/svg" xmlns:xlink="http://www.w3.org/1999/xlink" x="0px" y="0px"
	 viewBox="0 0 400 400" style="enable-background:new 0 0 400 400;" xml:space="preserve">
<style type="text/css">
	.st0{fill:#FFFFFF;}
	.st1{fill:#C4CED4;}
</style>
<g>
	<path class="st0" d="M144.3,252.2l-13.2,19.7l21.7-7.1l8.8,21.2l6.6-22.8l24.4,6.3l-15.8-18.3l19.1-15.7l-17,1l11.2-12.6h21.9
		l25-44.4v-29.2h-17.8l-8.5,15.1l-1.6,11.4l-12.8,22.7h-11.8l11.5-20.4v-28.9h-18.4l-8.2,15l-1.5,11.5L148,212.7l3.1,7.9l-3.9-4.2
		l1.6,21.6l-23.4,1L144.3,252.2z M154.3,223.9h8.3l-2.5,6.3L154.3,223.9z"/>
	<path class="st0" d="M49.4,199.4c-7.3,1.8-14.5,3.8-21.7,5.9c-0.8,0.2-1.6,0.5-2.3,0.7v-2.4v-12.7v-3.1c1.1-0.3,2.1-0.6,3.2-0.9
		c5.9-1.7,11.8-3.3,17.7-4.8c1-0.3,2.1-0.5,3.1-0.8v3.1v6.7c5.5-1.4,11-2.7,16.5-3.9v-12c-1.9-2.9-3.9-5.9-5.8-8.8
		c-1.4,0.3-2.8,0.7-4.2,1c-0.1,0-0.1,0-0.2,0c-11.8,2.8-23.5,6-35.2,9.5c-0.4,0.1-0.8,0.3-1.3,0.4c-1.5,0.4-2.9,0.9-4.4,1.4
		c-2,4.1-3.9,8.2-5.9,12.3h0v24.4c2.9,2,5.8,4,8.8,6.1c2.4-0.7,4.8-1.5,7.2-2.2c7.4-2.2,14.8-4.2,22.2-6.1c0.8-0.2,1.6-0.4,2.4-0.6
		v2.5v13.1v3.3c-1,0.3-2.1,0.5-3.1,0.8c-6.1,1.6-12.3,3.2-18.4,5c-1,0.3-2.1,0.6-3.1,0.9V235v-6.8c-5.5,1.6-10.9,3.3-16.3,5.1v12.1
		c0,0,0,0,0,0c1.9,2.7,3.8,5.5,5.7,8.3c1.4-0.4,2.8-0.9,4.3-1.3c0.5-0.1,0.9-0.3,1.4-0.4c11.8-3.6,23.8-6.8,35.7-9.7
		c1.5-0.4,2.9-0.7,4.4-1c2-3.9,3.9-7.8,5.9-11.6v-25c-2.9-2.3-5.9-4.7-8.8-7C54.7,198.1,52.1,198.8,49.4,199.4"/>
	<path class="st0" d="M390.4,220.1c-2.9-3.9-5.8-7.8-8.7-11.7c-2.6-0.8-5.2-1.6-7.9-2.4c-7.2-2.1-14.4-4.1-21.7-6
		c-0.8-0.2-1.6-0.4-2.4-0.6v-2.4v-12.7v-3.1c1.1,0.3,2.1,0.5,3.2,0.8c5.9,1.5,11.8,3.1,17.7,4.8c1,0.3,2.1,0.6,3.1,0.9v3.1v6.7
		c5.5,1.6,10.9,3.3,16.3,5v-12c-1.9-4-3.8-7.9-5.7-11.9c-1.4-0.4-2.8-0.9-4.2-1.3c-0.1,0-0.1,0-0.2-0.1c-11.6-3.6-23.4-6.8-35.1-9.6
		c-0.4-0.1-0.9-0.2-1.3-0.3c-1.5-0.4-3-0.7-4.5-1.1c-2,3-4,6-6,9c0,8.1,0,16.2,0,24.4c3,3.6,6,7.3,8.9,10.9c2.4,0.6,4.9,1.2,7.3,1.8
		c7.4,1.9,14.8,3.9,22.2,6c0.8,0.2,1.6,0.5,2.3,0.7v2.5v13.1v3.2c-1-0.3-2.1-0.6-3.1-0.9c-6.1-1.8-12.2-3.4-18.4-5
		c-1-0.3-2.1-0.5-3.1-0.8v-3.1v-6.8c-5.5-1.4-11-2.7-16.6-3.9v12.1c0,0,0,0,0,0c1.9,3.8,3.9,7.6,5.8,11.4c1.4,0.3,2.9,0.7,4.3,1
		c0.5,0.1,0.9,0.2,1.4,0.3c12,2.9,23.9,6.1,35.7,9.8c1.5,0.4,2.9,0.9,4.4,1.3c1.9-2.8,5.7-8.5,5.7-8.5
		C390.4,245.1,390.4,228.4,390.4,220.1"/>
	<path class="st0" d="M130.8,154.3c-0.5,0.1-0.9,0.1-1.4,0.2c-15.6,1.8-31.1,4.2-46.6,7.1v74.7c5.6-1.1,11.1-2.1,16.7-3v-26
		c9.9-1.6,19.9-3,29.9-4.2c0.5-0.1,0.9-0.1,1.4-0.2c1.5-0.2,3-0.3,4.6-0.5c2.1-3.9,4.2-7.7,6.4-11.6v-26.9
		c-2.1-3.4-4.2-6.9-6.4-10.3C133.8,154,132.3,154.1,130.8,154.3 M124.9,170.7V188v3.8c-1.3,0.2-2.5,0.3-3.8,0.5
		c-7.2,0.9-14.4,2-21.5,3.1v-24.9c7.2-1.2,14.3-2.2,21.5-3.1c1.3-0.2,2.5-0.3,3.8-0.5V170.7z"/>
	<path class="st0" d="M310.5,200.1c2-0.8,3.9-1.5,5.9-2.3v-1.2v-1.2v-1.1V177v-5c-3.5-4.1-7-8.2-10.5-12.3
		c-16.2-2.8-32.5-5-48.8-6.5v74.7c5.6,0.5,11.2,1.1,16.8,1.8v-29.2c4.3,0.5,8.6,1.1,12.9,1.7c1.4,0.2,2.9,0.4,4.3,0.6
		c2.9,0.4,5.7,0.9,8.6,1.3v29.2c0.3,0,0.6,0.1,0.9,0.1c5.3,0.9,10.6,1.8,15.8,2.8v-29.2v-2.5C314.4,203.1,312.5,201.6,310.5,200.1
		 M295.8,191.7c-7.3-1.1-14.6-2.2-21.9-3v-22c7.4,0.9,14.7,1.9,22.1,3.1c1.2,0.2,2.5,0.4,3.7,0.6v3.7v14.4v3.9
		C298.4,192.1,297.1,191.9,295.8,191.7"/>
	<path class="st0" d="M79.5,134.7c-2.4,0.4-4.7,0.9-7.1,1.4c-0.3,0.1-0.5,0.1-0.8,0.2v-0.8v-4.1v-1c0.3-0.1,0.7-0.1,1-0.2
		c1.9-0.4,3.8-0.7,5.8-1.1c0.3-0.1,0.7-0.1,1-0.2v1v2.2c1.8-0.3,3.6-0.7,5.4-1v-3.9c-0.6-1-1.2-2-1.9-2.9c-0.5,0.1-0.9,0.2-1.4,0.2
		c0,0,0,0-0.1,0c-3.8,0.7-7.6,1.4-11.4,2.2c-0.1,0-0.3,0.1-0.4,0.1c-0.5,0.1-1,0.2-1.4,0.3c-0.6,1.3-1.3,2.5-1.9,3.8v7.9
		c1,0.8,1.9,1.5,2.9,2.3c0.8-0.2,1.6-0.3,2.4-0.5c2.4-0.5,4.8-0.9,7.2-1.4c0.3,0,0.5-0.1,0.8-0.1v0.8v4.2v1c-0.3,0.1-0.7,0.1-1,0.2
		c-2,0.4-4,0.8-6,1.1c-0.3,0.1-0.7,0.1-1,0.2v-1v-2.2c-1.8,0.4-3.6,0.7-5.3,1.1v3.9l0,0c0.6,1,1.2,1.9,1.9,2.9
		c0.5-0.1,0.9-0.2,1.4-0.3c0.2,0,0.3-0.1,0.5-0.1c3.9-0.8,7.8-1.5,11.6-2.2c0.5-0.1,1-0.2,1.4-0.3c0.6-1.2,1.3-2.5,1.9-3.7
		c0,0,0,0,0,0c0,0,0,0,0,0v-8.1c-1-0.8-1.9-1.6-2.9-2.4C81.2,134.4,80.3,134.6,79.5,134.7"/>
	<path class="st0" d="M98,121.7c-2.2,8.4-4.4,16.8-6.7,25.3c1.7-0.3,3.4-0.6,5.1-0.8c0.5-1.9,0.9-3.8,1.4-5.6
		c2.6-0.4,5.2-0.8,7.9-1.2c0.5,1.7,0.9,3.5,1.4,5.2c1.8-0.3,3.7-0.5,5.5-0.8c-2.2-7.8-4.5-15.5-6.7-23.3
		C103.3,120.9,100.6,121.3,98,121.7 M98.8,136.2c1-4,2-8.1,2.9-12.1c1,3.7,1.9,7.5,2.9,11.2C102.7,135.6,100.8,135.9,98.8,136.2"/>
	<path class="st0" d="M133.2,133.2c-2.8-5.1-5.7-10.1-8.5-15.2c-1.9,0.2-3.8,0.4-5.7,0.7v24.2c1.6-0.2,3.2-0.4,4.8-0.6v-16.2
		c2.8,5.1,5.6,10.2,8.4,15.3c1.9-0.2,3.8-0.4,5.8-0.6v-24.2c-1.6,0.2-3.2,0.3-4.8,0.5V133.2z"/>
	<path class="st0" d="M162.1,114.9c-2.2,8.2-4.5,16.4-6.7,24.6c1.7-0.1,3.4-0.2,5.2-0.3c0.5-1.8,0.9-3.7,1.4-5.5
		c2.6-0.2,5.3-0.3,7.9-0.4c0.5,1.8,0.9,3.6,1.4,5.4c1.9-0.1,3.7-0.2,5.6-0.2c-2.2-8-4.5-16-6.7-23.9
		C167.4,114.6,164.8,114.7,162.1,114.9 M163,129.5c1-3.9,2-7.9,3-11.8c1,3.8,1.9,7.7,2.9,11.5C166.9,129.3,164.9,129.4,163,129.5"/>
	<path class="st0" d="M199,129.9c-2.8-5.4-5.7-10.7-8.5-16c-1.9,0-3.8,0.1-5.7,0.1v24.2c1.6,0,3.2-0.1,4.8-0.1v-16.2
		c2.8,5.4,5.6,10.8,8.5,16.2c1.9,0,3.9,0,5.8,0v-24.2c-1.6,0-3.2,0-4.8,0V129.9z"/>
	<path class="st0" d="M211.7,118.3c2.2,0,4.4,0.1,6.6,0.2v19.8c1.8,0.1,3.6,0.1,5.4,0.2v-19.8c2.2,0.1,4.4,0.2,6.6,0.3v-4.3
		c-6.2-0.3-12.4-0.5-18.7-0.6V118.3z"/>
	<path class="st0" d="M279.8,134.8c-2.8-5.7-5.7-11.4-8.5-17.1c-1.9-0.2-3.8-0.4-5.7-0.6v24.2c1.6,0.2,3.2,0.3,4.8,0.5v-16.2
		c2.8,5.7,5.6,11.4,8.4,17.2c1.9,0.2,3.8,0.5,5.7,0.7v-24.2c-1.6-0.2-3.2-0.4-4.8-0.6V134.8z"/>
	<path class="st0" d="M292.5,124.1c1.4,0.2,2.7,0.4,4.1,0.6v16.7c-1.4-0.2-2.7-0.4-4.1-0.6v3.8c4.5,0.6,9,1.3,13.6,2.1
		c0-1.3,0-2.5,0-3.8c-1.4-0.2-2.7-0.4-4.1-0.7v-16.7c1.4,0.2,2.7,0.4,4.1,0.7c0-1.3,0-2.5,0-3.8c-4.5-0.7-9-1.4-13.6-2.1V124.1"/>
	<path class="st0" d="M255.6,116.2c-0.5,0-1-0.1-1.5-0.1c0,0,0,0,0,0c-3.9-0.3-7.7-0.6-11.6-0.9c-0.2,0-0.4,0-0.5,0
		c-0.5,0-1-0.1-1.5-0.1c-0.7,1.1-1.4,2.3-2.1,3.4v17c0.7,1.2,1.4,2.5,2.1,3.7c0.5,0,1,0.1,1.5,0.1c0.2,0,0.4,0,0.5,0
		c3.9,0.3,7.8,0.5,11.6,0.9c0,0,0,0,0,0c0.5,0,1,0.1,1.5,0.1c0.7-1.1,1.4-2.3,2.1-3.4v-17C257,118.7,256.3,117.4,255.6,116.2
		 M252.3,121.3v13.3v1.4c-0.5,0-0.9-0.1-1.4-0.1c-1.9-0.2-3.8-0.3-5.7-0.4c-0.5,0-0.9-0.1-1.4-0.1c0-0.5,0-0.9,0-1.4
		c0-4.4,0-8.9,0-13.3c0-0.5,0-0.9,0-1.4c0.5,0,0.9,0.1,1.4,0.1c1.9,0.1,3.8,0.3,5.7,0.4c0.5,0,0.9,0.1,1.4,0.1V121.3z"/>
	<path class="st0" d="M333,131c-0.7-1.3-1.4-2.7-2-4c-0.5-0.1-1-0.2-1.5-0.3c0,0,0,0,0,0c-3.8-0.8-7.7-1.5-11.5-2.2
		c-0.2,0-0.4-0.1-0.5-0.1c-0.5-0.1-1-0.2-1.5-0.3c-0.7,1.1-1.4,2.1-2,3.2v17c0.7,1.3,1.4,2.6,2,3.9c0.5,0.1,1,0.2,1.5,0.3
		c0.2,0,0.4,0.1,0.5,0.1c3.8,0.7,7.7,1.4,11.5,2.2c0,0,0,0,0,0c0.5,0.1,1,0.2,1.5,0.3c0.7-1.1,1.4-2.1,2-3.2V131z M327.7,131.8v13.3
		v1.4c-0.5-0.1-0.9-0.2-1.4-0.3c-1.9-0.4-3.8-0.7-5.7-1.1c-0.5-0.1-0.9-0.2-1.4-0.3c0-0.5,0-0.9,0-1.4c0-4.4,0-8.9,0-13.3
		c0-0.5,0-0.9,0-1.4c0.5,0.1,0.9,0.2,1.4,0.3c1.9,0.4,3.8,0.7,5.7,1.1c0.5,0.1,0.9,0.2,1.4,0.3V131.8"/>
	<g>
		<path d="M170.7,177.8l-19.7,35.1l3.3,8.3h12.3l-5.6,14.1L150.6,224l1.2,16.6l-18.1,0.8l14.4,10.1l-10.2,15.3l16.6-5.4l6.8,16.4
			l5.2-17.9l18.5,4.8L173,250.8l14.7-12.1l-15.1,0.9l16.4-18.5h21.6l23.9-42.3v-25.7h-13.4l-7.7,13.7l-1.3,11L198,202.4h-18.1
			l13.5-23.9v-25.4h-14l-7.4,13.6L170.7,177.8z"/>
		<polygon class="st1" points="229.1,156.8 222.8,156.8 218,165.4 224.6,165.4 		"/>
		<polygon class="st1" points="188.4,156.8 181.6,156.8 176.9,165.4 183.9,165.4 		"/>
		<path class="st1" d="M175.7,211l-14,32l-6.3-6.8l0.6,8.6l-9.4,0.4l7.5,5.3l-5.3,7.9l8.6-2.8l3.5,8.5l2.7-9.3l9.6,2.5l-6.2-7.2
			l7.6-6.3l-10.7,0.7h-0.7l22.2-33.5h19.2l17-30.5h-6.6l-14.3,25.2h-34.3l14.3-25.2h-6.7L156.5,211H175.7z"/>
		<polygon class="st1" points="182.2,168.8 176,168.8 175.2,176.1 181.6,176.1 		"/>
		<polygon class="st1" points="223.2,168.8 217,168.8 216.2,176.1 222.6,176.1 		"/>
		<path d="M158.7,252.6c1.6,0,2.8-1.2,2.8-2.8c0-1.6-1.3-2.8-2.8-2.8c-1.6,0-2.8,1.3-2.8,2.8C155.8,251.3,157.1,252.6,158.7,252.6"
			/>
	</g>
</g>
</svg>
