<?xml version="1.0" encoding="utf-8"?>
<!-- Generator: Adobe Illustrator 24.0.1, SVG Export Plug-In . SVG Version: 6.00 Build 0)  -->
<svg version="1.1" id="Layer_3" xmlns="http://www.w3.org/2000/svg" xmlns:xlink="http://www.w3.org/1999/xlink" x="0px" y="0px"
	 viewBox="0 0 400 400" style="enable-background:new 0 0 400 400;" xml:space="preserve">
<style type="text/css">
	.st0{clip-path:url(#SVGID_1_);fill:#C4CED4;}
	.st1{clip-path:url(#SVGID_1_);}
	.st2{clip-path:url(#SVGID_1_);fill:#FFFFFF;}
	.st3{clip-path:url(#SVGID_1_);fill:#0077C0;}
</style>
<g>
	<defs>
		<rect id="SVGID_3_" x="15.6" y="65.8" width="366.2" height="265.5"/>
	</defs>
	<clipPath id="SVGID_1_">
		<use xlink:href="#SVGID_3_"  style="overflow:visible;"/>
	</clipPath>
	<path class="st0" d="M163.4,250.7c19.6-3,39.2-2.1,56.5,5.1l2.1-4.6c-27.8-8.9-62.8-8.5-88.7,5.8l7.4-17.2
		C108,248.6,86,267.1,63.9,286c16.1-38.1,51.2-69.4,90.8-80.8l-2,6.3c34.7-11.3,72.9-13.5,103.7-8.4l-7.2-9.4l17.7,4.5l11.4-17
		l4.5,21l17.4,5.6c0,0-12.7,5.3-12.1,5.6c66,27.1,44.9,117.4-17.8,117.8c-31.7,0.3-56.4-28.4-55.3-58.4
		C198.8,262.4,182.7,257.3,163.4,250.7"/>
	<path class="st0" d="M123.3,129.2c0-7.1,2-13.5,6.3-18.2c4.3-4.7,10.4-7.4,17.4-8c13.4-1.2,27-2,40.5-2.3l9.9-0.2V215l-0.2,9.8
		l-9.9-0.2c-1.7,0-15,0.5-17.4,0.6h-0.3l-10.7,1V226l-6.7,0.3c-0.9,0-16.9,1.6-17.6,1.8l-11.3,1.8V129.2z M151,130.3v-0.2
		c0.1-2,1.2-4.6,3.2-6.1s4.1-1.9,6.1-2c0,0,1.8-0.1,3.7-0.2l5.7-0.4v35.8v5l-5,0.3c-3,0.2-4.8,0.3-8.1,0.5l-5.7,0.4v-33.1H151z"/>
	<path class="st0" d="M369.1,251.5c0,0-13.3-4.1-15.3-4.7c-0.1,0-0.1,0-0.2-0.1c-6-1.7-11.4-3.2-15.3-4.3l-7.1-1.8
		c-6.8-1.6-12.5-4.9-16.4-9.8c-3.9-4.9-5.8-11.2-5.8-18.1v-74.4c0-7.3,2.2-14,7.5-18.1c3.4-2.7,7.6-3.9,12-3.9
		c2.3,0,4.7,0.3,7.1,0.9c0.9,0.2,3.5,0.9,7.6,2.1c4,1.1,9.2,2.6,14.3,4.1c10.3,2.9,20.3,5.8,20.3,5.8l3.9,1.1v50.6l-32.4-10
		l-0.5-3.3c0,0-0.9-5.9-1.8-11.3v56.4v0.1v0.1v0.1c0,0.1,0.1,0.3,0.1,0.4c0,0-0.1,0.1,0.9,0.4c0,0,2.1,0.5,3.5,0.9
		c0.9-3.8,1.8-7.7,1.8-7.8l1.3-5.6l27.1,8.1l0.1,45.8L369.1,251.5z"/>
	<path class="st0" d="M15.8,144.8c0-5.7,2.7-10.4,5.8-13.6c3.2-3.3,6.7-5.3,10-6.4c14.9-4.8,35.9-8,36.9-8.2l5.7-0.9
		c2.4-1.3,5-2.4,7.7-2.9c7.3-1.5,29.5-5.7,30.5-5.9l11.5-2.2v116.4l-0.2,8.7l-8.6,1c-0.7,0-16.8,2.8-17.6,3l-12,2.7v-18.8l-33.4,7.9
		v11.5l-0.1,7.6l-7.3,1.8c-0.1,0-2.6,0.7-5.2,1.5c-2.7,0.8-5.7,1.8-8,2.5c-1.4,0.4-2.6,0.8-2.7,0.9l-13.2,4.8V144.8H15.8z"/>
	<path class="st0" d="M297.5,233.5h-0.2c-0.2,0-0.4-0.1-0.6-0.1c-0.5-0.1-1.2-0.2-2-0.4c-1.6-0.3-3.7-0.6-5.7-1
		c-4-0.7-8.4-1.4-8.7-1.4l-4-0.4l-4.7-0.5V105.9l10.6,0.8c1.1,0.1,3.4,0.5,6.8,1c3.2,0.5,7,1.2,9.6,1.6c1.9,0.3,2.9,0.5,3.8,0.7
		l7.4,1.9v112l-0.1,12.1L297.5,233.5z"/>
	<path class="st0" d="M259.9,227.9c-1.1-0.2-7.7-0.9-14.7-1.4c-6.6-0.5-13.9-1-18.6-1.3l-5.1-0.2c-7.1-0.3-13.4-2.5-17.9-7.1
		c-4.4-4.6-6.5-10.9-6.5-18v-77.5c0-6.2,1.8-11.9,6-15.9c5.3-5,11.8-5.5,15.8-5.5c1.1,0,2,0,2.7,0.1h0.7h0.8c1.4,0,3.1,0.1,5.6,0.2
		l2.9,0.1l-0.1,0.1c2.8,0.2,6.3,0.5,10.8,0.8c15.1,1.2,19.1,1.6,21.4,2.1c0.8,0.1,1.8,0.5,2.1,0.7l5.6,2.7v6.2v2.1v32l-32-4.1
		l-0.8-3.7c0,0-0.9-4.1-1.7-7.7c-0.4,0-0.9-0.1-1.4-0.1l0.1,14.7v3.2l2-0.1h0.1h0.1h0.1c0.9,0,2.1,0.1,4.1,0.3
		c1.9,0.2,4.3,0.4,6.8,0.6c5,0.4,10.4,1,13.1,1.3c0.8,0.1,1.2,0.1,1.9,0.3l7.7,1.7l-0.1,75.6L259.9,227.9z"/>
	<path class="st1" d="M126.5,129.2c-0.2-13,7.9-22,20.9-23c13.3-1.2,26.9-2,40.3-2.3l6.7-0.1v111.1l-0.1,6.7l-6.7-0.1
		c-1.7,0-16.9,0.5-18.1,0.7l-7.2,0.7v-43.5c-1.3,0.1-2.5,0.2-3.8,0.3v37l-0.1,6.2l-6.2,0.3c-1.2,0-16.8,1.6-17.9,1.8l-7.6,1.2
		L126.5,129.2z M158.5,155.5c1.3-0.1,2.5-0.2,3.8-0.3v-25.9c-0.9,0.1-1.5,0.1-1.4,0.1c-1.2,0.1-1.8,0.3-2,0.5
		c-0.2,0.2-0.3,0.2-0.4,0.8V155.5z"/>
	<path class="st1" d="M370.1,248.4c0,0-11.7-3.6-14.8-4.5c-0.3-0.1-0.5-0.1-0.6-0.2h-0.1c-6.6-1.9-12.5-3.5-16.5-4.6l-6.2-1.5
		c-12.6-2.9-19.8-12-19.7-24.8v-74.4c0-6.8,2-12.2,6.2-15.6c2.8-2.2,6.2-3.2,10-3.2c2,0,4.2,0.3,6.4,0.8
		c2.1,0.5,42.1,11.9,42.2,11.9l1.5,0.4v43.9l-26.3-8.1l-0.2-1.3c0,0-2-12.8-2.9-18.2c-1.6-0.5-2.8-0.8-3.6-1.1h-0.1l-0.7-0.2
		l-0.9-0.3v65.3v0.3c0,0.2,0.1,1.1,0.5,1.8c0.5,0.9,1.3,1.6,2.9,2.1c0,0,3.5,0.9,6.7,1.8c1-4.4,2.5-11,2.5-11l0.5-2.2l21.6,6.5
		l0.1,39.1L370.1,248.4z"/>
	<path class="st1" d="M19.1,144.8c0.2-9.5,8.3-15.3,13.6-17c14.5-4.6,35.5-7.9,36.5-8.1l6.3-1c2.2-1.3,4.7-2.3,7.3-2.9
		c7.2-1.5,29.4-5.7,30.4-5.9l7.7-1.4V221l-0.1,5.8l-5.8,0.7c-1.2,0.1-16.8,2.8-17.9,3.1l-8.1,1.8v-91.1h-0.2
		c-2.3,0.7-2.7,1.2-3.2,3.7v0.1v67.5v1.7l-31.7,7.5v-72.6c-0.2,0.1-0.4,0.1-0.5,0.1c-1.1,0.3-2.3,0.9-3.1,1.5
		c-0.8,0.7-1.1,1.2-1.1,2.2v83.8l-0.1,5.1l-4.9,1.2c-1.1,0.3-15.1,4.6-16.1,5l-8.9,3.3V144.8H19.1z"/>
	<path class="st1" d="M298.2,230.3c-1.1-0.3-16.6-2.8-17.7-2.9l-4-0.4l-1.9-0.2V109.4l7.1,0.6c1.8,0.2,18,2.9,19.7,3.3l5,1.3V224
		l-0.1,8.1L298.2,230.3z"/>
	<path class="st1" d="M260.4,224.7c-3.1-0.6-24.1-2.2-33.6-2.8l-5.2-0.2c-6.6-0.3-12-2.3-15.7-6.1c-3.7-3.8-5.6-9.3-5.6-15.8v-77.4
		c0-5.6,1.6-10.3,5-13.6c4.3-4.1,9.9-4.6,13.6-4.6c1,0,1.9,0,2.6,0.1h0.7h0.8c2.8,0,7.9,0.4,19,1.2c15.1,1.2,19.2,1.6,21,2
		c0.6,0.1,1.1,0.3,1.4,0.5l3.8,1.8v4.2v2.1v28.4l-26.2-3.4l-0.3-1.5c0,0-1.4-6.2-2.2-10c-0.5,0-1-0.1-1.4-0.1
		c-0.2,0-4.2-0.3-4.2-0.3h-0.6c-0.4,0-0.7,0-1,0.1v0.2v0.9v0.7l0.1,16.3v6.5l5.4-0.2h0.2c1.3,0,7,0.5,12.8,1
		c5.8,0.5,11.2,1.1,12.4,1.3l5.1,1.1l-0.1,69.2L260.4,224.7z M232.4,196.1c0,0.1,0.1,0.9,0.3,1.3c0.2,0.3,0.5,0.6,2,0.7
		c0,0,0.7,0,1.6,0.1v-22c-1.3-0.1-2.9-0.2-2.9-0.2l-1.1-0.1L232.4,196.1z M228,129.3L228,129.3"/>
	<path class="st2" d="M187.8,108.5L187.8,108.5v-1.1c-13.3,0.3-26.7,1-40,2.2c-11.3,1-17.7,8-17.6,19.5v92.8l3.5-0.6
		c1-0.2,17.4-1.8,18.3-1.9h1.8h1v-2.9v-40.3c2.7-0.2,8-0.6,11-0.8v43.5l3.3-0.4c0.9-0.1,16.1-0.7,18.3-0.7h0.1l2,0.1h1.1v-3.1V107.4
		l-3,0.1L187.8,108.5z M165.8,125.5v33c-2.7,0.2-8,0.5-11,0.7v-28.8c0.3-2,1-4.2,5.7-4.6C160.5,125.8,163.4,125.6,165.8,125.5"/>
	<path class="st2" d="M374.9,214.5l-15.3-4.6l-0.2,1.1c0,0-1.9,8.4-2.7,12.1c-6.1-1.8-8.8-2.6-10.3-2.9c-3.1-0.9-4.5-2.6-5.2-3.9
		c-0.8-1.5-0.9-3.1-0.9-3.5v-0.3v-65.8c0-0.3,0.1-1.7,0.6-2.4c0.3-0.5,0.8-0.7,1.8-0.7c0.5,0,1.2,0.1,2,0.3h0.1h0.1h0.1
		c0.2,0,2.8,0.8,7.3,2.1c0.6,3.8,2.9,18.8,2.9,18.8l0.1,0.7l19.5,6v-36.1l-0.8-0.2c0,0-38.1-10.9-40.1-11.3c-2-0.5-3.9-0.8-5.6-0.8
		c-3.1,0-5.7,0.8-7.8,2.4c-3.3,2.6-4.9,7-4.9,12.8v74.4c-0.1,11.1,5.8,18.6,16.8,21.2l0.2,0.1h0.4c1.3,0.2,11.8,3.1,22.4,6.1
		l15.5,4.7l3.8,1.2L374.9,214.5z"/>
	<path class="st2" d="M83.5,119.4c-4,0.8-7.6,2.9-10.4,5.7v-2.4l-3.4,0.5c-0.9,0.1-21.8,3.4-35.9,8c-4.6,1.5-11,6.5-11.1,13.6v101.6
		l4-1.6c0.8-0.3,15.6-4.8,16.5-5.1l1.4-0.3l0.8-0.2v-86.1c0-4.4,4.1-6.3,6.8-7.2c0.9-0.3,3.1-0.7,5.1-1v72.4l24.5-5.8v-2.3v-64.1
		v-0.4c0.6-4,2.3-5.9,6-6.9h0.1c0.6-0.1,2.6-0.4,4.5-0.7v2.2V228l3.7-0.9c0.9-0.2,17.4-3,18.4-3.1l1.7-0.1l1-0.1v-2.7V112.9
		l-3.5,0.6C113.9,113.5,90.7,117.8,83.5,119.4"/>
	<path class="st2" d="M281.4,113.5l-2.1-0.2l-1.1-0.1v110.2l1,0.1l1.7,0.2c0.9,0.1,17.3,2.8,18.2,3l3.7,0.9v-3.8V117.2l-2.2-0.6
		C299.1,116.3,282.8,113.6,281.4,113.5"/>
	<path class="st2" d="M238,157.2L238,157.2h-0.2l-1.8,0.1h-1v15.3l1,0.1c0,0,2.3,0.2,3.9,0.3v29.2c-2.4-0.2-5.4-0.4-5.5-0.4
		c-2.5-0.2-4-1.1-4.9-2.5c-0.7-1.2-0.8-2.6-0.8-3.2v-48.9l-0.1-16.2v-0.7v-0.2v-0.8c0-0.9,0.2-1.9,0.8-2.6c0.6-0.7,1.8-1.2,3.8-1.2
		h0.8h0.1h0.3c0.5,0,3.3,0.2,8,0.6c0.7,3,2.4,10.9,2.4,10.9l0.2,0.7l19.6,2.5v-24.3v-2.1v-1.2V112l-1.7-0.9
		c-0.8-0.3-1.6-0.6-21.2-2.1c-11.8-0.9-16.7-1.2-18.9-1.2h-0.6h-0.9c-0.7,0-1.5-0.1-2.5-0.1c-3.3,0-7.7,0.5-11,3.6
		c-2.7,2.5-3.9,6.3-3.9,11v77.5c-0.1,11.3,6.4,18,17.8,18.3h0.1h0.1h0.3c2.9,0,34.4,2.2,38.8,3l3.5,0.7l0.1-62l-2.3-0.5
		C260.8,159.1,240.2,157.2,238,157.2"/>
	<path class="st3" d="M238,169.9c1,0.1,4.9,0.3,4.9,0.3v35.1c-2.9-0.2-5.8-0.4-8.6-0.6c-4.2-0.3-6.3-2.3-7.2-4
		c-1.1-1.9-1.2-3.9-1.2-4.6v-48.9c0-9.3-0.1-16.3-0.1-16.8v-1.1c0-1.2,0.3-3,1.6-4.5c1.4-1.6,3.8-2.4,7-2.2c0-0.1,4.9,0.3,10.6,0.8
		l2.6,11.7l14.2,1.9v-20.9V114c-1.2-0.5-39.8-3.5-39.8-3.1h-0.7c-3.1-0.1-8.1-0.3-11.3,2.7c-2,1.9-3,4.9-3,8.9v77.3
		c0,10,5,15,15,15.4c0-0.3,34.7,2.1,39.8,3.1c0-1.2,0.1-54.8,0.1-56c-1.2-0.2-22.5-2.2-23.7-2.2v9.7H238z M151.9,130.3
		c0.2-2,1.3-6.9,8.4-7.4c2.8-0.2,5.6-0.4,8.4-0.5v39c-5.6,0.3-11.3,0.7-16.9,1.1v-32.2H151.9z M133.1,129.2v89.3
		c1.2-0.2,17.6-1.9,18.8-1.9v-43.2c5.6-0.5,11.3-0.9,16.9-1.2v43.3c1.2-0.1,17.8-0.7,19-0.7V110.4c-13.3,0.3-26.6,1-39.9,2.2
		C138.1,113.6,133.1,119.3,133.1,129.2 M281.1,220.8c1.2,0.1,17.5,2.8,18.6,3.1V119.6c-1.1-0.3-17.5-3-18.6-3.1V220.8z M70.2,137.2
		v-11c0,0-21.4,3.4-35.5,7.9c-3.7,1.2-9,5.4-9,10.8v97.3c1.1-0.4,15.7-4.9,16.9-5.2v-83.8c0-5.9,4.8-8.8,8.9-10c2.3-0.7,9-1.7,9-1.7
		v72.1l18.6-4.4v-64.7c0.6-5,3.3-8.4,8.3-9.5c4.7-0.8,8.2-1.3,8.2-1.3v5.6v84.9c1.1-0.3,17.7-3.1,18.8-3.2V116.4
		c0,0-23,4.3-30.3,5.8C77.2,123.7,71.7,129.3,70.2,137.2 M371.9,216.7l-10.2-3l-3,13.2c-6.6-2-13.3-3.9-13.3-3.8
		c-4.1-1.1-6.1-3.6-7.1-5.4c-1.1-2.1-1.2-4.1-1.2-4.9v-0.3v-65.8c0-0.8,0.1-2.7,1.2-4.2c1-1.3,3-2.7,7-1.5c0-0.1,4.3,1.2,9.5,2.7
		l3,19.5l14,4.3v-29.8c0,0-36.8-10.6-38.5-11c-9.7-2.4-14.7,1.6-14.7,11.6v74.4c0,10,5,16,14.7,18.4c0-0.2,12.3,3.2,23,6.2l15.6,4.7
		V216.7z"/>
	<path class="st3" d="M238,169.9c1,0.1,4.9,0.3,4.9,0.3v35.1c-2.9-0.2-5.8-0.4-8.6-0.6c-4.2-0.3-6.3-2.3-7.3-4
		c-1.1-1.9-1.2-3.9-1.2-4.6v-48.9c0-9.3-0.1-16.3-0.1-16.8v-1.1c0-1.2,0.2-3,1.5-4.5c1.4-1.6,3.8-2.4,7-2.2c0-0.1,4.9,0.3,10.6,0.8
		l2.6,11.7l14.2,1.9v-20.9V114c-1.2-0.5-39.8-3.5-39.8-3.1h-0.7c-3-0.1-8.1-0.3-11.3,2.7c-2,1.9-3,4.9-3,8.9v77.3
		c0,9.9,5,15,15,15.4c0-0.3,34.7,2.1,39.8,3.1c0-1.2,0.1-54.8,0.1-56c-1.2-0.2-22.5-2.2-23.7-2.2V169.9z M281.1,220.8
		c1.2,0.1,17.5,2.8,18.6,3.1V119.5c-1.1-0.3-17.5-3-18.6-3.1V220.8z M70.2,137.2v-11c0,0-21.4,3.4-35.5,7.9c-3.7,1.2-9,5.4-9,10.8
		v97.3c1.1-0.4,15.7-4.9,16.9-5.2v-83.8c0-5.8,4.8-8.8,8.9-10c2.3-0.7,9-1.7,9-1.7v72.1l18.6-4.4v-64.7c0.6-5,3.3-8.3,8.3-9.5
		c4.7-0.8,8.2-1.3,8.2-1.3v5.6v84.9c1.1-0.3,17.7-3.1,18.8-3.2V116.4c0,0-23.1,4.3-30.3,5.8C77.2,123.7,71.7,129.3,70.2,137.2"/>
	<path class="st2" d="M141.6,73c-0.5-0.6-1.2-1.1-2-1.3c-0.6-0.2-1.1-0.2-1.7-0.2c-0.9,0-1.7,0.1-2.4,0.2c-2,0.4-4,0.8-6,1.1
		c-1.5,0.3-2.8,0.8-3.8,1.4c-0.7,0.5-1.4,1.1-1.8,1.8c-0.5,0.9-0.8,1.9-0.8,2.9v19.4c0,1,0.2,2,0.8,2.8c0.5,0.6,1.2,1,2,1.2
		c0.5,0.1,1,0.1,1.4,0.1c0.9,0,1.8-0.2,2.6-0.3c2-0.4,4-0.8,6-1.1c1.5-0.3,2.8-0.7,3.8-1.3c0.8-0.5,1.4-1,1.8-1.7
		c0.6-0.9,0.8-1.9,0.8-2.9V75.8C142.4,74.7,142.2,73.7,141.6,73 M135.1,95.5c0,0,0,0.2-0.3,0.5c-0.2,0.2-0.6,0.4-1.2,0.5
		c-0.5,0.1-1.6,0.3-2.4,0.5h-0.4c-0.3,0-0.3-0.1-0.3-0.1s0-0.2-0.1-0.2V78.5c0,0,0-0.2,0.2-0.5c0.2-0.2,0.6-0.4,1.3-0.6
		c0.7-0.1,1.4-0.3,2.1-0.4c0.2,0,0.4-0.1,0.5-0.1c0.3,0,0.4,0.1,0.5,0.1c0.1,0,0.1,0.2,0.1,0.2V95.5z"/>
	<path class="st2" d="M232.9,69.2c-0.5-0.7-1.1-1.2-1.9-1.6c-1.4-0.7-2.9-0.9-3.9-0.9c-4-0.3-8-0.5-11.9-0.6H214v29.4h1.1
		c1.7,0.1,3.5,0.1,5.2,0.2h1.2V71.2c0.8,0,1.6,0.1,2.4,0.1c2.8,0.3,2.4,1.2,2.5,1.5v23.1l1,0.1c1.7,0.1,3.4,0.2,5.1,0.4l1.2,0.1
		v-1.2V72C233.8,71,233.5,70,232.9,69.2"/>
	<path class="st2" d="M256.6,71.9c-0.5-0.7-1.1-1.3-1.8-1.7c-1.1-0.6-2.3-1-3.9-1.2c-1.6-0.3-9.7-1.2-11.9-1.4l-1.2-0.1V97l1,0.1
		c3.9,0.4,7.9,0.9,11.8,1.4c0.7,0.1,1.3,0.1,1.8,0.1c0.8,0,1.5-0.1,2.1-0.3c0.8-0.2,1.5-0.7,2-1.3c0.6-0.8,0.9-1.8,0.9-2.8V74.8
		C257.4,73.8,257.1,72.8,256.6,71.9 M249.8,93c-0.2,0.1-0.6,0.2-1.1,0.2c-0.3,0-0.7,0-0.9-0.1c-0.9-0.1-1.8-0.2-2.7-0.3V73.3
		c0.8,0.1,1.6,0.2,2.4,0.3c0.8,0.1,1.5,0.3,2,0.6c0.4,0.3,0.6,0.5,0.6,1.2v16.9C250,92.9,249.9,92.9,249.8,93"/>
	<path class="st2" d="M165.9,96v-9.9c0-1-0.6-2-1.5-2.6c-0.1-0.1-0.2-0.2-0.4-0.2c0.8-0.6,1.7-1.5,1.7-3.1v-7.5c0-1-0.3-2-0.9-2.8
		c-0.5-0.6-1.2-1.1-2-1.3c-0.7-0.2-1.5-0.3-2.4-0.3c-0.5,0-1,0-1.6,0.1c-3.9,0.5-7.8,1-11.7,1.5l-1,0.1v29.5l1.3-0.2
		c1.7-0.3,3.4-0.5,5.1-0.7l1-0.1V87c0.9-0.1,1.7-0.2,2.6-0.3h0.1h0.1h0.7c0.7,0,1,0.1,1.2,0.2c0.2,0.1,0.2,0.3,0.2,0.7v10.2l1.3-0.1
		c1.7-0.2,3.4-0.4,5.1-0.5l1-0.1L165.9,96z M158.4,80.1L158.4,80.1c0,0.2,0,0.5-0.4,0.9c-0.4,0.3-1.1,0.6-2.1,0.8
		c-0.7,0.1-1.5,0.2-2.2,0.3v-8.2c0.8-0.1,1.7-0.2,2.5-0.3c0.4-0.1,0.8-0.1,1.1-0.1c0.7,0,1,0.1,1.1,0.2c0.1,0.1,0,0,0.1,0.3v0.1v4.8
		C158.4,79.5,158.4,80,158.4,80.1"/>
	<path class="st2" d="M186.5,89.3v-3.8l-1.2,0.1l-4.5,0.3l-1.7,5.2c-0.7,0-1.3,0.1-2,0.1V66.6l-1.2,0.1c-1.7,0.1-3.5,0.3-5.2,0.4
		l-1,0.1v29.5l1.2-0.1c4.8-0.4,9.7-0.7,14.5-0.9h1.1v-1.1v-2.7V89.3z"/>
	<path class="st2" d="M208.9,65.9c-1.4,0-5.4-0.1-8.5-0.1h-3.5c-1.6,0-2.9,0.2-4,0.7c-0.8,0.3-1.5,0.9-2,1.5
		c-0.6,0.8-0.9,1.8-0.9,2.9v23.3v1.2h1.2c1.7,0,3.4-0.1,5.1-0.1h1.1v-11h4.4h0.6v10.9h1.1c1.7,0,3.5,0,5.2,0.1h1.2V65.9H208.9z
		 M202.5,79.4h-1.3h-3.7v-7.6v-0.1c0-0.1,0-0.3,0.3-0.5c0.3-0.3,1-0.5,2.2-0.5h1.8h0.7V79.4z"/>
	<path class="st2" d="M279.5,76.1L279.5,76.1c-0.4-0.7-1-1.3-1.7-1.8c-1.3-0.9-2.8-1.2-3.9-1.5c-2-0.4-4-0.8-6-1.2
		c-0.8-0.1-1.5-0.2-2.2-0.2c-0.6,0-1.2,0.1-1.8,0.2c-0.8,0.2-1.5,0.6-2,1.2c-0.7,0.9-1,1.9-1,2.9v19.4c0,1,0.2,2,0.8,2.9
		c0.4,0.7,1.1,1.3,1.8,1.7c1.3,0.8,2.8,1.1,3.9,1.3c2,0.4,4,0.7,5.9,1.2c0.9,0.2,1.7,0.3,2.5,0.3c0.5,0,1,0,1.4-0.1
		c0.8-0.2,1.6-0.6,2.1-1.2c0.6-0.8,0.9-1.7,0.9-2.8V79C280.2,78,280,77,279.5,76.1 M273,96.8C273,96.8,273,96.9,273,96.8L273,96.8
		c-0.1,0.1-0.2,0.2-0.5,0.2c-0.2,0-0.4,0-0.6-0.1c-0.5-0.1-1.5-0.3-2.4-0.4c-0.6-0.1-1-0.4-1.1-0.7c-0.1-0.2-0.1-0.4-0.1-0.4V77.1
		c0.1,0,0.2-0.1,0.5-0.1c0.2,0,0.4,0,0.6,0.1c0.7,0.1,1.4,0.3,2.1,0.4c0.6,0.1,1,0.3,1.2,0.5c0.4,0.3,0.3,0.6,0.3,0.6V96.8z"/>
	<polygon class="st2" points="157.1,236.5 160.8,234.7 163.9,237.4 163.3,233.4 166.8,231.3 162.8,230.6 161.9,226.5 160,230.2 
		155.9,229.8 158.8,232.8 	"/>
	<path class="st1" d="M281.6,213.5c3.6-1.6,10.4-4.5,10.4-4.5l0.5-0.2l-0.5-0.2c0,0-10.9-3.6-13.2-4.3c-0.4-2.5-2.1-14.3-2.1-14.3
		l-0.1-0.6l-4,6.4c0,0-2.3,3.7-3.5,5.6c-2.6-0.7-13.8-3.5-13.8-3.5l-0.6-0.2l0.4,0.5c0,0,4.6,5.9,7.3,9.5
		c-11.3-2.5-24.4-3.8-39.3-3.8c-4.9,0-10,0.1-15.4,0.5c-20.4,1.2-40.5,5-59.8,11.9l2.2-6.6l-0.4,0.1c-30.1,9.4-63.2,37.7-77.8,65.7
		l0.3,0.2c20.6-19.3,48.6-34.8,73.6-40.5l-6.6,15.3l0.5-0.2c11.6-5.6,26.9-8.1,42.4-8.1c15.8,0,31.7,2.6,44.1,7.1l-4.7,10.3
		c-11.2-5.1-27.4-8.6-41-8.6c-2.4,0-4.7,0.1-6.9,0.3v0.4c15.9,4.5,32.3,9.6,45.5,20c-0.1,1.1-0.1,2.2-0.1,3.3
		c0,27.5,23.7,52.5,51.7,52.5h0.6c30.7-0.4,53.6-28.5,53.6-58C324.5,248.1,312.2,225.8,281.6,213.5"/>
	<path class="st0" d="M264.8,264c-11.3,0-22.7-4.2-34.1-8.3c-3,6.3-4.5,13-4.5,19.8c0,3.6,0.4,7.2,1.3,10.9h2.8
		c22,0,45.5-6.1,64.3-17.3c-2.2-4-4.9-7.8-7.7-11.5C279.5,262.2,272.2,264,264.8,264"/>
	<path class="st0" d="M229.4,290.6h-0.7c6.9,17.8,22.7,29.6,41.9,29.9c6.2-15.2,13-31.8,28.6-39.5c-0.8-2.7-1.8-5.4-2.9-8
		C276.3,284.7,252.7,290.6,229.4,290.6"/>
	<path class="st0" d="M277.1,234.8c-6.8-2.6-11.2-3.4-11.6-3.5c-1.9,0.3-4.5,0.5-6.6,0.9c11.6,4.6,20.2,10.2,28.8,19.9
		c4.4-3.5,8.3-7.5,11-12.3c-7.9-7.7-22.8-17.1-60.1-20c15.7,3.7,30.1,8.8,38.5,14.7L277.1,234.8z"/>
	<path class="st0" d="M172.7,229.6c2.3,0,4.8-0.1,7.4-0.1c26.4,0,67.2,3.1,83,21.9l-0.3,0.3c-5.5-3-16.4-8.1-23.2-8.1H239
		c-2.3,2.6-4.4,5.4-6.3,8.4c10.6,3.9,21.3,7.8,31.8,7.8c6.7,0,13.3-1.5,19.8-5.5c-18.3-20-49.4-28.7-78.6-28.7
		C194.3,225.6,183,226.9,172.7,229.6"/>
	<path class="st0" d="M297.8,267c5.1-3.5,9.5-7.1,13.5-11.8c-2.5-4.8-6.9-10.2-10-12.9c-2.9,5.1-6.6,9.4-11.2,13.1
		C292.9,258.9,295.7,263,297.8,267"/>
	<path class="st0" d="M275.2,320.4c9.3-1.1,17.8-4.3,25-10.4c1.1-4.1,1.6-8.4,1.6-12.6c0-4.1-0.4-8.1-1.2-12.1
		C286.6,291.9,280.8,306.7,275.2,320.4"/>
	<path class="st0" d="M305.8,300c0,1.4,0,2.8-0.1,4.2c5.4-7.4,8.4-13.8,10-23.2c-4,0.4-7.9,1-11.7,2.3
		C305.3,288.9,305.8,294.4,305.8,300"/>
	<path class="st0" d="M299.8,270.8c1.2,2.8,2.3,5.7,3.3,8.6c4.4-1.4,8.6-2.2,13.1-2.4v-1c0-6-0.9-10.7-2.9-16.4
		C309.1,263.9,304.7,267.5,299.8,270.8"/>
	<path class="st0" d="M316.1,277c-4.5,0.3-8.8,1-13.1,2.4c-1-2.9-2-5.8-3.3-8.6c5-3.3,9.4-7,13.5-11.2c2,5.8,2.8,10.4,2.9,16.4V277"
		/>
	<path class="st0" d="M316.1,277c-4.5,0.3-8.8,1-13.1,2.4c-1-2.9-2-5.8-3.3-8.6c5-3.3,9.4-7,13.5-11.2c2,5.8,2.8,10.4,2.9,16.4V277"
		/>
	<path class="st0" d="M301.3,242.2c3.1,2.8,7.5,8.2,10,12.9c-4,4.7-8.4,8.3-13.5,11.8c-2.2-3.9-5-8.1-7.6-11.6
		C294.7,251.6,298.4,247.4,301.3,242.2"/>
	<path class="st0" d="M301.3,242.2c3.1,2.8,7.5,8.2,10,12.9c-4,4.7-8.4,8.3-13.5,11.8c-2.2-3.9-5-8.1-7.6-11.6
		C294.7,251.6,298.4,247.4,301.3,242.2"/>
	<path class="st0" d="M238.7,219.6c37.2,2.9,52.2,12.4,60.1,20c-2.7,4.9-6.6,8.8-11,12.3c-8.6-9.6-17.2-15.2-28.8-19.9
		c2.1-0.4,4.7-0.7,6.6-0.9c0.4,0.1,4.8,0.9,11.6,3.5l0.2-0.4C268.9,228.3,254.4,223.3,238.7,219.6"/>
	<path class="st0" d="M238.7,219.6c37.2,2.9,52.2,12.4,60.1,20c-2.7,4.9-6.6,8.8-11,12.3c-8.6-9.6-17.2-15.2-28.8-19.9
		c2.1-0.4,4.7-0.7,6.6-0.9c0.4,0.1,4.8,0.9,11.6,3.5l0.2-0.4C268.9,228.3,254.4,223.3,238.7,219.6"/>
	<path class="st0" d="M230.2,286.3h-2.8c-0.9-3.6-1.3-7.3-1.3-10.9c0-6.8,1.5-13.4,4.5-19.8c11.4,4.2,22.7,8.3,34.1,8.3
		c7.4,0,14.7-1.8,22.1-6.4c2.8,3.6,5.5,7.4,7.7,11.5C275.7,280.2,252.2,286.3,230.2,286.3"/>
	<path class="st0" d="M230.2,286.3h-2.8c-0.9-3.6-1.3-7.3-1.3-10.9c0-6.8,1.5-13.4,4.5-19.8c11.4,4.2,22.7,8.3,34.1,8.3
		c7.4,0,14.7-1.8,22.1-6.4c2.8,3.6,5.5,7.4,7.7,11.5C275.7,280.2,252.2,286.3,230.2,286.3"/>
	<path class="st0" d="M270.7,320.6c-19.2-0.3-35-12.1-42-29.9h0.7c23.3,0,46.8-5.9,67-17.7c1.1,2.6,2.1,5.3,2.9,8
		C283.7,288.7,276.8,305.3,270.7,320.6"/>
	<path class="st0" d="M270.7,320.6c-19.2-0.3-35-12.1-42-29.9h0.7c23.3,0,46.8-5.9,67-17.7c1.1,2.6,2.1,5.3,2.9,8
		C283.7,288.7,276.8,305.3,270.7,320.6"/>
	<path class="st0" d="M305.7,304.2c0.1-1.4,0.1-2.8,0.1-4.2c0-5.6-0.6-11.1-1.8-16.7c3.7-1.2,7.7-1.9,11.6-2.3
		C314.1,290.5,311.2,296.9,305.7,304.2"/>
	<path class="st0" d="M305.7,304.2c0.1-1.4,0.1-2.8,0.1-4.2c0-5.6-0.6-11.1-1.8-16.7c3.7-1.2,7.7-1.9,11.6-2.3
		C314.1,290.5,311.2,296.9,305.7,304.2"/>
	<path class="st0" d="M284.5,254.3c-6.5,4-13.2,5.5-19.8,5.5c-10.6,0-21.3-3.9-31.8-7.8c1.9-3,3.9-5.8,6.3-8.4h0.6
		c6.8,0,17.7,5,23.2,8.1l0.3-0.3c-15.8-18.8-56.6-21.9-83-21.9c-2.6,0-5.1,0-7.4,0.1c10.1-2.6,21.5-3.9,33.1-3.9
		C235.1,225.6,266.2,234.4,284.5,254.3"/>
	<path class="st0" d="M284.5,254.3c-6.5,4-13.2,5.5-19.8,5.5c-10.6,0-21.3-3.9-31.8-7.8c1.9-3,3.9-5.8,6.3-8.4h0.6
		c6.8,0,17.7,5,23.2,8.1l0.3-0.3c-15.8-18.8-56.6-21.9-83-21.9c-2.6,0-5.1,0-7.4,0.1c10.1-2.6,21.5-3.9,33.1-3.9
		C235.1,225.6,266.2,234.4,284.5,254.3"/>
	<path class="st0" d="M300.1,309.9c-7.2,6.1-15.7,9.3-25,10.4c5.6-13.6,11.4-28.4,25.4-35.1c0.7,4,1.2,8,1.2,12.1
		C301.7,301.5,301.2,305.8,300.1,309.9"/>
	<path class="st0" d="M300.1,309.9c-7.2,6.1-15.7,9.3-25,10.4c5.6-13.6,11.4-28.4,25.4-35.1c0.7,4,1.2,8,1.2,12.1
		C301.7,301.5,301.2,305.8,300.1,309.9"/>
	<polygon class="st0" points="263.4,217.5 271.5,214.7 277.6,221.6 276.9,212.5 284.8,209.1 276.2,206.3 274.9,197.3 270.4,204.6 
		261.8,202.4 267.5,209.8 	"/>
	<polygon class="st2" points="220.3,224 225.9,221.2 230.6,225.4 229.7,219.2 235.1,216.1 228.9,215 227.6,208.9 224.7,214.5 
		218.4,213.8 222.8,218.3 	"/>
	<polygon class="st2" points="157.1,236.5 160.8,234.7 163.8,237.4 163.3,233.4 166.8,231.3 162.7,230.6 161.9,226.5 160,230.2 
		155.9,229.8 158.7,232.8 	"/>
	<path class="st3" d="M297,292.3v-0.7l-5.2,8.7l1.5-7.7l-0.4-0.2c-7.6,9.3-10.5,15.9-12.9,24.1l-0.1,0.4l0.4-0.1
		c8.6-3,13-6.4,14.8-7.8c1.3-2.8,1.9-8.4,1.9-15.2V292.3"/>
	<path class="st3" d="M279.6,272.1c-8.3,1.7-18.1,2.7-27,2.7c-1.3,0-2.7,0-3.9-0.1l19.1-5.7v-0.4c-12.6-0.6-22.4-0.8-34.7-6.6
		l-0.2-0.1l-0.1,0.2c-1.8,3.3-2.9,7.9-2.9,12.6c0,2.7,0.3,5.3,1.1,7.8v0.1h0.1h1.3c5.5,0,28.2-0.6,47.4-10.2L279.6,272.1z"/>
	<path class="st3" d="M283.8,287.6c-9.6,7.2-16.9,13-31.1,15.6c13.2-6.8,22-11.6,30.3-20l-0.3-0.3c-14.7,8.6-33.9,12.2-47.5,12.8
		h-0.4l0.2,0.3c11.1,17.6,25.2,19.2,29.8,19.2c1,0,1.5-0.1,1.5-0.1h0.1l0.1-0.1c6-9.4,9.8-18.5,17.5-27.2L283.8,287.6z"/>
	<path class="st2" d="M308.7,254c-1.3,1.4-2.5,2.6-3.7,3.7c-1.4-3-3-5.8-4.9-8.5c1-1.2,1.9-2.4,2.8-3.7
		C305.3,248.2,307.3,251.3,308.7,254 M313.7,272.7c-1.5,0.2-2.9,0.4-4.2,0.7c-0.3-2.2-0.7-4.4-1.3-6.5c1.5-1.2,2.9-2.5,4.3-3.9
		C313.4,266.2,313.7,269.2,313.7,272.7 M309,292.7V292c0.6-3.1,1-6.1,1.1-9.2c0.8-0.2,1.6-0.4,2.5-0.5
		C311.6,286,310.5,289.4,309,292.7 M273.9,228.8c-0.7-0.4-1.4-0.7-2.1-1c11.4,3.4,19.1,7.8,23.4,11.1c-0.7,1-1.4,1.9-2.2,2.8
		C287.7,236.4,281.3,231.9,273.9,228.8"/>
</g>
</svg>
