<?xml version="1.0" encoding="utf-8"?>
<!-- Generator: Adobe Illustrator 24.0.1, SVG Export Plug-In . SVG Version: 6.00 Build 0)  -->
<svg version="1.1" id="Layer_3" xmlns="http://www.w3.org/2000/svg" xmlns:xlink="http://www.w3.org/1999/xlink" x="0px" y="0px"
	 viewBox="0 0 400 400" style="enable-background:new 0 0 400 400;" xml:space="preserve">
<style type="text/css">
	.st0{fill:#FFFFFF;}
	.st1{fill:#98002E;}
	.st2{fill:#F9A01B;}
</style>
<g>
	<g>
		<path d="M329.8,105c-9.9-10.9-31.8-19.8-60-25.2c0.1-3.2,2.1-4.6,5.6-7c1.8-1.3,3.9-2.7,6-4.7c9.1-8.6-1.6-21.9-2-22.4l-5.9-7.2
			l1.4,9.2c1,6.3-1.3,8.5-8.2,13.3c-0.9,0.6-1.6,1.3-2.3,2c0.3-4.2,0.5-8.9-0.9-14.7c-1.4-5.9-4.3-8.2-4.3-8.2l-0.7,8.5
			c0,0.1-0.7,6.6-9.5,14.6c0.8-0.8,1.5-1.7,2.1-2.7c4.3-6.3,3.1-13.4,1.6-21.6l-0.3-1.7c-1.5-8.6,0.8-14,2.3-14.9
			c1.4-1.8,4.3-4.7,4.3-4.7s-1.5-0.7-5.7-0.1c-5.5,0.8-14.7,4-14.5,11.6c0.1,3.3,1.2,6.4,2.1,9.2c1,3,2,5.8,1.1,7.2
			c-0.7,1.1-2.7,2-5.9,2.6c-12.9,2.4-22.9,8.4-27.9,17.1c-1.7,2.9-2.8,5.9-3.4,9.1c-32.1,0.1-62.5,4.1-86.1,11.4
			c-26.4,8.2-41,19.3-42.1,32.2c-0.6,6.8,2.5,16.6,19.4,26l-0.1,0.1l4.8,2.3c0,0,0,0,0,0l2.5,1.2l0,0c7.8,3.5,17,6.5,27.2,9
			c-3.6,2.1-7,4.4-10,7.1C104.1,177,94.6,197,94.6,218.3c0,19,7.4,36.8,20.8,50.2c13.4,13.4,31.3,20.8,50.2,20.8
			c33.6,0,62.8-23.8,69.6-56.6c5.7-17.2,5.1-35.6,4.8-42.5c-0.6-15.8,7.2-24.5,12.1-28.4c22.4-2.8,42.3-7.8,57.1-14.3l0,0l2.4-1.1
			c0,0,0,0,0,0l5.1-2.4l-0.1-0.1c11.9-6.6,18.5-14.5,19.3-22.8C336.4,115.4,334.3,110,329.8,105z M306.7,118.8
			c2,2.2,1.9,3.7,1.8,4.1c-0.2,2.6-3.4,5.6-8.8,8.5l0,0c-11.3,5.9-30.7,10.4-53.8,12.8c1-0.7,2.1-1.2,3.3-1.7l0.4-0.2
			c6.6-2.7,14.2-5.8,14.5-16.7c0.1-1.7,0.1-7.1,1.1-9c1.2-2.5,4.4-6.3,7.2-7.3c0,0-4.7-0.9-4.7-0.9c-0.2,0-0.5,0-0.7,0
			c1.6-1.1,2.7-2.5,3.5-4C289.4,108.3,302,113.6,306.7,118.8z M104,121.5c0.8-9.1,33.5-21,86.2-22.9c-4.9,3.7-10.7,10.1-12.1,20.4
			l-0.5,3.9c-0.3,2.4-0.8,4.9-1.7,7.3c-2,5.3-7.8,9.7-13.9,13.1c-21.3-2.7-39-7.2-49.4-12.8l0,0C106.8,127.5,103.7,124.2,104,121.5z
			"/>
		<g>
			<polygon class="st0" points="140.7,337.9 149.7,300.9 134.8,300.9 125.7,337.9 			"/>
			<path class="st0" d="M173.5,310l0.9,15.1h-7.8l7.9,12.8h13.7l-2.1-37c0,0-22.6,0-22.5,0c0,0-18.5,37-18.4,37h14.4L173.5,310
				L173.5,310z"/>
			<polygon class="st0" points="138.7,371.9 135.6,384.6 149.7,384.6 158.8,347.6 144.7,347.6 141.3,361.9 130.7,361.9 134.2,347.6 
				120.1,347.6 111,384.6 125.1,384.6 128.1,371.9 			"/>
			<polygon class="st0" points="172.3,376.2 173.3,371.2 190.7,371.2 192.9,363 175.4,363 176.6,357.6 194,357.6 196.7,347.6 
				165,347.6 155.9,384.6 187.4,384.6 189.6,376.2 			"/>
			<polygon class="st0" points="262.6,337.9 271.7,300.9 256.7,300.9 247.6,337.9 			"/>
			<path class="st0" d="M287.4,329.5c2,2.8,4.2,8.2-5.1,12.4c-10.7,4.9,0,17.3-14.7,17.3h-6l-6.1,25.4h-15l6.1-25.4l-10.1,0
				l3.2-11.6h26c15.4,0,4.6-10.7,12.5-12.1C283.5,334.4,286.8,333.5,287.4,329.5z"/>
			<polygon class="st0" points="99.9,320 97.5,300.9 79,300.9 69.9,337.9 83.5,337.9 88.6,318.6 88.6,318.6 91.4,337.9 99.4,337.9 
				110.6,318.6 110.6,318.6 106.3,337.9 119.2,337.9 128.3,300.9 110.4,300.9 99.9,320 			"/>
			<polygon class="st0" points="222,320 219.6,300.9 201.1,300.9 192,337.9 205.6,337.9 210.7,318.6 210.8,318.6 213.5,337.9 
				221.5,337.9 232.7,318.6 232.8,318.6 228.4,337.9 241.3,337.9 250.4,300.9 232.6,300.9 222,320 			"/>
			<path class="st0" d="M219.7,356.7l0.9,15.1h-7.8l7.9,12.8h13.7l-2.1-37c0,0-22.6,0-22.5,0c0,0-18.5,37-18.4,37h14.4L219.7,356.7
				L219.7,356.7z"/>
		</g>
		<g>
			<path class="st1" d="M97.4,223.3c1.9,9.3,7.2,20.5,17.8,28c3.2,2.3,6.7,4.1,10.4,5.5c-2.3-3.9-5-7.9-7.7-11.9
				c-5.1-7.5-10.3-15.2-13.7-23.6c-3.4-8.6-4.4-17.6-2.9-26.7l0,0c-2.7,7.4-4.2,15.3-4.2,23.6C97.2,220,97.2,221.6,97.4,223.3
				L97.4,223.3z"/>
			<path class="st1" d="M108.8,219.5c3.1,7.8,8.2,15.4,13.2,22.6c3.8,5.6,7.5,11.1,10.4,16.7c3.1,0.7,6.4,1.2,9.7,1.4
				c-3.4-4.9-6.4-10.4-8.9-16.7c-9.9-24.5-8.4-54.8,3.8-72.3c6.3-9,13.9-15.2,23.6-20.5c8.4-4.6,13.6-5.9,18.9-9.1
				c5.8-3.5,8.9-9.2,5.1-22.2c-1.1-3.8-1.3-6.8-1.1-9.1c-1.3,2.6-2.4,5.5-2.8,9l0,0c-0.6,3.7-0.9,7.7-2.4,11.8
				c-5.1,13.4-29.9,20.8-33.2,21.8c-9.4,2.8-16.9,7.2-22.8,12.4C105.3,180.4,102.2,203.1,108.8,219.5z"/>
			<g>
				<path class="st1" d="M212.2,98.4c0.2,0.8,0.5,1.6,0.6,2.4c0.6,4.7-0.8,8.5-6.5,9.4c-5.9,0.9-7.9-4.2-8.4-8.4
					c0-1.5,0.1-2.6,0.2-3.5c-1,0-2,0-3,0.1c-1.9,1.1-4.4,2.8-6.7,5.2c-1.2,2.5-2.6,6-0.4,14.3c3.9,14.5,2.2,23.2-9.4,28.3
					c-14.8,6.4-24.3,10.1-37,26.1c-6.1,7.6-9.4,20.2-9.9,32.9c-0.5,12.3,2,25.5,6.3,36.3c2.9,7.2,6.3,13.5,10.3,18.8
					c4-0.2,8-0.7,12-1.5c-4.4-5.2-7-11.5-7.4-18.5c-1.5-23.5,11.1-33.4,30.6-49l8.7-7.3c34.8-29.5,24.6-59.6,28.5-85.2
					C217.8,98.6,215,98.5,212.2,98.4z"/>
			</g>
			<g>
				<path class="st1" d="M226.1,98.9c-1.1,5.1-1.5,10.5-1.9,16c-1.4,22.3-0.7,47.6-29,72.8l-8.6,6.9c-18.9,15.2-29.8,24.7-29,45.3
					c0.2,6.8,3.1,12.8,7.9,17.5c5.3-1.6,10.5-3.8,15.6-6.7c24.6-14,40.1-34.8,46-61.6c3.7-16.9,3.7-30.7,3.6-41.8
					c0-5.6,0.7-16.6,0.7-16.6c0.8-6.9,1.9-16.6,9.9-29.4c0.3-0.4,0.5-0.8,0.8-1.2C237.1,99.6,231.7,99.2,226.1,98.9z"/>
			</g>
			<path class="st1" d="M234.4,170.8C234.4,170.7,234.4,170.7,234.4,170.8C234.4,170.7,234.4,170.8,234.4,170.8c-0.8,4-1,8.5-1.5,13
				c-0.2,1.7-0.5,3.4-0.7,5c-0.1,0.5-0.2,0.9-0.3,1.4c-6.2,28.2-22.3,50.1-48.1,64.8c-4.4,2.5-8.9,4.6-13.5,6.2
				c7.6,5,16.4,6.6,22.5,5.7c23.2-3.5,34.5-18.6,40-34.8c5.6-16.6,5-34.4,4.7-41.7c-0.9-24.5,18.1-33.6,18.1-33.6
				C240.8,155.9,236,162.3,234.4,170.8z"/>
			<path class="st1" d="M218.9,261.3c-9.5,7.9-19.7,9.7-24.4,10.4c-9.1,1.4-20-0.8-29.5-8.3c-0.2-0.1-0.3-0.3-0.5-0.4
				c-4.1,1.1-8.2,1.8-12.3,2.2c9.4,10.1,21.7,15.8,38.3,16.9c0.1,0,0.1,0,0.2,0c0,0,0,0,0,0c11.3-4.4,21.1-11.7,28.5-21
				C219.1,261.1,219,261.2,218.9,261.3z"/>
			<path class="st1" d="M132.5,278.2c0.2-5.2-1.3-10.3-3.6-15.3c-5.7-1.6-11.2-4.1-16.6-7.3c-3-1.8-5.7-4.6-8.1-7.2c0,0,0,0,0,0
				C110.2,260.9,120.2,271.4,132.5,278.2C132.5,278.2,132.5,278.2,132.5,278.2z"/>
			<path class="st1" d="M179.8,285.2c-9.3-2.1-17.2-5.4-24.1-10.7c-3.5-2.7-6.8-5.7-9.7-9.2c-3.7,0-7.5-0.4-11.2-1.1
				c2.1,5.3,3.1,10.7,2.4,16.3c0,0,0,0,0,0c8.7,4,18.3,6.2,28.4,6.2c4.9,0,9.7-0.5,14.3-1.5C179.9,285.3,179.8,285.2,179.8,285.2z"
				/>
			<g>
				<path class="st1" d="M259.4,117c-1.6,5.3-6.8,4.7-8.4,1.8c-2.4-4.6-1.5-8.1,1-10.5c2.5-2.4,6.6-3.7,10.6-5.5c0,0,0,0,0.1,0
					c-4.6-0.8-9.5-1.5-14.7-2.1c-0.1,0.1-0.1,0.2-0.2,0.2c-0.5,0.5-0.9,1.1-1.4,1.6c-8.3,12.4-9.3,21.6-10.1,28.7l-0.3,2.2
					c-0.5,3.7-0.4,8.4-0.4,13.8c0,0.7,0,1.5,0,2.3c-0.1,1.9-0.1,3.8-0.2,5.6c0,0,0.1,0,0.1,0c0.1-0.8,0.1-1,0.1-0.7
					c2.3-7.4,6.6-12,12.7-14.4c6.5-2.7,13-5.1,13.3-14.6c0.1-4,0.4-7.9,1.3-10c1.6-3.7,4.6-4.6,4.6-4.6
					C264.4,110.6,260.9,111.9,259.4,117z"/>
			</g>
		</g>
	</g>
	<g>
		<path class="st2" d="M267.3,79.4c0.5-6.4,6.5-7.5,12.3-13.1c7.5-7.1-2.2-19-2.2-19c1.2,8-2.5,11-9.2,15.7
			c-2.1,1.5-3.7,3.6-3.9,6.2c-0.2,3-0.4,6.1-1.1,9.4C264.6,78.9,265.9,79.1,267.3,79.4z"/>
		<path class="st2" d="M246.7,68.3c-1.8,1.3-3.5,2.7-5.1,4.1c-1.1,1.1-2.2,2.1-3.2,3.2c6.6,0.6,13,1.3,19.1,2.2
			c3.9-7.2,5.8-15.3,3.5-29.1C261,48.6,260.5,58,246.7,68.3z"/>
		<path class="st2" d="M209.9,74.2c7.5,0.1,14.9,0.4,22.1,0.9c0.2-0.2,0.5-0.5,0.7-0.7c4.8-5.2,12.3-9.6,16.3-15.4
			c4-5.8,2.4-12.9,0.9-21.5c-2.5-14.8,3.7-17.6,3.7-17.6s-12.5,1.7-12.3,9c0.3,9.7,10.3,18.9-4.8,21.6c-16.6,3-26.9,12-29.2,23.7
			C208.3,74.2,209.1,74.2,209.9,74.2z"/>
	</g>
	<path class="st0" d="M209.9,78.1c-69.5-0.7-127.4,17.2-129.4,40c-0.8,9.1,7.4,17.6,21.9,24.5c9,4.3,20.4,8,33.6,11
		c2.6-1.2,5.4-2.2,8.3-3.1c2.3-0.7,6.5-2.1,11.2-4.1c-19.4-2.8-35.2-7.2-44.9-12.4c-7.2-3.9-11-8.2-10.6-12.8
		c1.4-15.3,50-27.3,108.6-26.7c58.6,0.6,105.1,13.5,103.7,28.8c-0.4,4.2-4.2,8.1-10.9,11.6c-12.2,6.4-33.9,11.4-60.2,13.7
		c-0.9,1.2-1.7,2.6-2.4,4.2c12-4.5,25.7,2.2,25.7,2.2s0.9,0.4,1.6,0.8c17.4-3.1,32.4-7.5,43.6-12.9c13.3-6.3,21.3-13.9,22.1-22.2
		C334,97.8,279.4,78.8,209.9,78.1z"/>
</g>
</svg>
