<?xml version="1.0" encoding="utf-8"?>
<!-- Generator: Adobe Illustrator 24.0.1, SVG Export Plug-In . SVG Version: 6.00 Build 0)  -->
<svg version="1.1" id="Layer_2" xmlns="http://www.w3.org/2000/svg" xmlns:xlink="http://www.w3.org/1999/xlink" x="0px" y="0px"
	 viewBox="0 0 400 400" style="enable-background:new 0 0 400 400;" xml:space="preserve">
<style type="text/css">
	.st0{fill-rule:evenodd;clip-rule:evenodd;fill:#FFFFFF;}
	.st1{fill:#FFFFFF;}
	.st2{fill:#007AC1;}
	.st3{fill:#EF3B24;}
	.st4{fill:#FDBB30;}
	.st5{fill:#002D62;}
</style>
<g>
	<g>
		<path class="st0" d="M343.9,91.9l-15.3,31.3l9.4,4.6l15.3-31.3L343.9,91.9z M294.8,168.8l44.3-90.9l18.8,9.2
			c5.2,2.5,7.4,8.8,4.8,14l-16.3,33.5c-2.1,4.3-5.8,6.2-9.9,4.2l-11.2,44.9l-9.4-4.6l11.2-44.9l-3.1-1.5l-19.9,40.7L294.8,168.8z
			 M321.2,70.8l-19.9-6.5c-5.5-1.8-11.4,1.2-13.2,6.7l-24.7,76c-1.8,5.5,1.2,11.4,6.7,13.2l19.9,6.5l3.2-9.9l-19.9-6.5l10.7-33
			l14.9,4.8l3.2-9.9l-14.9-4.8l10.7-33l19.9,6.5L321.2,70.8z M247.7,62.6l10.3,1.6l-12.5,78.9l-10.3-1.6L247.7,62.6z M223.2,150.3
			l20.6,3.3c5.7,0.9,11-3,12-8.7l12.5-78.9c0.9-5.7-3-11.1-8.7-12L239,50.7L223.2,150.3z M184.2,149.5l10.5,0.2l0.5-29.2
			c0.2-8.9-0.4-26.8-0.8-35.3l0.3,0c2.7,22.5,7.7,43.5,11,64.7l9.9,0.2l1.8-100.8l-10.4-0.2l-0.5,29.2c-0.2,8.9,0.4,26.8,0.8,35.3
			l-0.3,0c-2.7-22.5-7.7-43.5-11-64.7l-9.9-0.2L184.2,149.5z M162.2,50.6l-10.3,1.6l14.1,89.3l-10.3,1.6l-14.1-89.3l-10.3,1.6
			l13.5,84.9c1.4,8.5,9.4,14.4,17.9,13c8.5-1.3,14.4-9.4,13-17.9L162.2,50.6z M109.7,166.4l9.9-3.2l-14-43l9.9-3.2l14,43l9.9-3.2
			l-31.2-95.9l-9.9,3.2l14,43l-9.9,3.2l-14-43l-9.9,3.2L109.7,166.4z M88.9,176.6l9.4-4.6L58.6,90.8l9.4-4.6l-4.6-9.4L35.3,90.6
			l4.6,9.4l9.4-4.6L88.9,176.6z"/>
		<g>
			<path class="st1" d="M96.8,316.4c-1.1-0.1-2.1-0.3-3.1-0.5c-10.5-4.6-5.1-15.5-1.9-22.6c4.1-9.1,8.2-18.2,12.5-27.3
				c-22.8,7.1-44.9,14.6-66.4,22.4c-5.4,2.3-8.7-1.3-2.4-5c21.8-13.9,45.9-26.5,71.9-37.6c-6.3-13.3-11.4-27.4-15.2-42.6l-3-12
				c37.7-19.4,69.6-30.1,112.4-30.1c42.8,0,74.7,10.7,112.4,30.2c-0.7,2.9-1.4,5.7-2.2,8.6c18.8-0.7,37-0.3,54.6,1.1
				c4.2,0.3,4.2,5.1,0.2,5.6c-19.5,2.8-39.4,6-59.6,9.6c-1.3,3.9-2.6,7.7-4,11.4c21.5-4.6,42.6-7.6,63-9.3c5.2-0.5,5.3,4.5,1,5.5
				c-23.9,7.3-48.2,15.4-72.8,24.3c-20.9,43.3-51.7,72.3-92.6,96.8c-18.2-10.9-34.8-23-50-37.8c-33.6,15.7-65.8,32.1-96.3,49
				c-4.6,2.9-8.8,0.4-3.2-4.5C65.7,339.3,80.7,327.6,96.8,316.4z"/>
			<path class="st2" d="M298.4,231.3c23.1-5.1,45.8-8.6,67.7-10.3c-24.3,7.4-49,15.7-74,24.7C294.3,241.1,296.4,236.3,298.4,231.3z
				 M53.8,353.6c19.4-17.1,41.2-33.4,65.1-48.4c4.5-2.3,9-4.5,13.5-6.8c1.9-0.9,5.5-2.7,10.1-4.9c3.1,3.5,6.3,6.8,9.6,10.1
				C117.7,319.6,84.9,336.3,53.8,353.6z"/>
			<path class="st3" d="M308,202.8c20-0.8,39.4-0.5,58.1,0.9c-20.1,2.8-40.6,6.2-61.4,9.9C305.8,210.1,306.9,206.5,308,202.8z
				 M36.9,285.8c22.5-14.3,47.3-27.3,74.2-38.6c0.9,1.8,1.8,3.6,2.8,5.4c-1.4,3-2.9,5.9-4.3,8.9C84.5,269.2,60.3,277.3,36.9,285.8z"
				/>
			<path class="st1" d="M181.1,275.2l3.3-1.5l8.4-6.7l1.9-5.2c1.2,2.5,1.9,3.4,3.1,5.9l2.8-1.2c0.1,2.7,0.1,5.2,0.1,7.7
				c-6.1,1.4-12.6,2.1-19.4,2.2L181.1,275.2z M205.2,264.4c3.5-1.5,7-3.1,10.4-4.6l1.6-1.7c0.7,0.1,1.5,0.1,2.4,0
				c1.3-0.2,3-0.7,4.8-1.3c-1.2,4.3-1.9,8-2.2,11.2c-5,1.8-10.5,3.4-16.8,5C205.4,270.2,205.3,267.4,205.2,264.4z M201.5,170.8
				c37.9,0,67.5,8.9,101.1,25.6c-16.4,61.8-46.4,103.3-101.1,137.1c-20.5-12.7-38-26.9-52.6-43c6.5-3.1,13.8-6.6,20.2-9.6
				c2.6,0.2,5.1,0.4,7.4,0.4c-0.1,3.6-1.3,6.2-3.1,8c1,1.2,2.1,2.4,3.2,3.6c2.8-2.5,4.7-6.3,4.8-11.6c6.6-0.1,13.1-0.8,19-2.1
				c-0.3,9.7-1.7,16.9-4.5,19.8c-0.1,0.1-0.2,0.2-0.2,0.3c-0.7,0.7-1.3,1.3-1.8,1.8c2.7-0.5,5.3-1.1,7.9-1.8
				c3.3-6.9,3.4-19,3.4-21.1c6.2-1.6,11.7-3.1,16.7-4.8c0.2,5.7,2.5,11.1,6.8,13.1c2-1.4,3.9-2.8,5.7-4.4c-1.1,0.2-8,0.6-7.9-10.4
				c14.5-5.5,24-12.1,32.3-22c2.2-5,4-10.2,5.2-15.6c-10,15.7-19.2,24.9-37.1,32.1c0.5-3.2,1.4-7,2.9-11.5c5.2-2.2,10.7-4.8,14-6.2
				l7.8-8.2c2-7.6,3.9-15.2,5.9-22.8l-6.1,1.9l7.2-7.6c1.5-6,3-11.9,4.5-17.9c-3.6,0.5-7.2,1.1-10.8,1.6c0.6-3,1-5.9,1.3-8.9
				c-1.7-0.4-3.5-0.9-5.2-1.3c-0.4,3.3-1,7-2,11.1l-0.5,0.1c-3.4,0.6-6.9,1.7-9.9,4.2l1-2.9c-5.8,1-11.6,2.1-17.4,3.2l-5.8,6.1
				l0.2-0.5l1.9-4.9c-5.7,1.2-11.4,2.4-17.2,3.6c-1.2-7.7-2.4-14.7-3.4-20.4c-1.6,0.2-3.2,0.4-4.9,0.6c1,5.7,2.3,12.9,3.5,20.8
				l-4,0.9l-5.2,5.4c-3.6-3.8-10.9-1.4-15.5-0.2c-5,1.3-10,2.6-15,3.9c-1.5,0.4-3,0.9-4.4,1.4c-3.7-5.4-7.3-11-10.2-17l-0.5-1.1
				c-1.5,0.6-3,1.3-4.5,1.9l0.6,1.3c2.8,5.9,6.2,11.3,9.9,16.7c-5.4,2.4-10.4,5.7-14.7,10.5c0,0-7,7.3-7.8,8.2
				c-1.8,2.1-3.4,4.3-4.8,6.6c-7.4-14.8-13.2-30.9-17.6-48.6C133.9,179.7,163.6,170.8,201.5,170.8z"/>
			<path class="st3" d="M181.1,275.2l3.3-1.5l8.4-6.7l1.9-5.2c1.2,2.5,1.9,3.4,3.1,5.9l2.8-1.2c0.1,2.7,0.1,5.2,0.1,7.7
				c-6.1,1.4-12.6,2.1-19.4,2.2L181.1,275.2z M205.2,264.4c3.5-1.5,7-3.1,10.4-4.6l1.6-1.7c0.7,0.1,1.5,0.1,2.4,0
				c1.3-0.2,3-0.7,4.8-1.3c-1.2,4.3-1.9,8-2.2,11.2c-5,1.8-10.5,3.4-16.8,5C205.4,270.2,205.3,267.4,205.2,264.4z M139.2,199.8
				c16.7-6.8,33.8-11.5,51.4-14.1c1,5.7,2.3,12.9,3.5,20.8l-4,0.9l-5.2,5.4c-3.6-3.8-10.9-1.4-15.5-0.2c-5,1.3-10,2.6-15,3.9
				c-1.5,0.4-3,0.9-4.4,1.4c-3.7-5.4-7.3-11-10.2-17L139.2,199.8z M135,225.9c-2.7-6.9-5.1-13.9-7.2-21.1c2.3-1.1,4.5-2.1,6.8-3.1
				l0.6,1.3c2.8,5.9,6.2,11.3,9.9,16.7C141.6,221.3,138.2,223.3,135,225.9z M173.5,289.3c-2.1-2.5-4.2-5-6.3-7.6l1.9-0.9
				c2.6,0.2,5.1,0.4,7.4,0.4C176.4,284.8,175.3,287.4,173.5,289.3z M194,301.1c-2.7,0.5-5.5,0.9-8.3,1.1c-3.1-3-6.1-6.1-9-9.3
				c2.8-2.5,4.7-6.3,4.8-11.6c6.6-0.1,13.1-0.8,19-2.1c-0.3,9.7-1.7,16.9-4.5,19.8c-0.1,0.1-0.2,0.2-0.2,0.3
				C195.1,300,194.5,300.6,194,301.1z M228.8,286.4c-8.1,5.7-17.2,10.1-26.9,12.8c3.3-6.9,3.4-19,3.4-21.1
				c6.2-1.6,11.7-3.1,16.7-4.8C222.2,278.9,224.5,284.4,228.8,286.4z M259,249.6c-5.6,12.6-14,23.7-24.5,32.4
				c-1.1,0.2-8,0.6-7.9-10.4C241.2,266.1,250.7,259.5,259,249.6z M221.9,183.5c8,0,15.9,0.4,23.7,1.3c5.9,1.2,11.8,2.7,17.6,4.5
				c2.2,7.8,3.4,16,3.4,24.5c0,7-0.8,13.8-2.3,20.4c-10,15.7-19.2,24.9-37.1,32.1c0.5-3.2,1.4-7,2.9-11.5c5.2-2.2,10.7-4.8,14-6.2
				l7.8-8.2c2-7.6,3.9-15.2,5.9-22.8l-6.1,1.9l7.2-7.6c1.5-6,3-11.9,4.5-17.9c-3.6,0.5-7.2,1.1-10.8,1.6c0.6-3,1-5.9,1.3-8.9
				c-1.7-0.4-3.5-0.9-5.2-1.3c-0.4,3.3-1,7-2,11.1l-0.5,0.1c-3.4,0.6-6.9,1.7-9.9,4.2l1-2.9c-5.8,1-11.6,2.1-17.4,3.2l-5.8,6.1
				l0.2-0.5l1.9-4.9c-5.7,1.2-11.4,2.4-17.2,3.6c-1.2-7.7-2.4-14.7-3.4-20.4C204.1,184,212.9,183.5,221.9,183.5z"/>
			<path class="st4" d="M127.3,233.5c-4.7-10.3-8.7-21-11.8-32.1c28.1-13.2,57.1-20.4,87.9-21.2c14.4,0.1,28.4,1.6,42.1,4.5
				c-7.8-0.8-15.7-1.3-23.7-1.3c-9,0-17.8,0.5-26.5,1.6c-1.6,0.2-3.2,0.4-4.9,0.6c-17.6,2.5-34.7,7.2-51.4,14.1
				c-1.5,0.6-3,1.3-4.5,1.9c-2.3,1-4.6,2-6.8,3.1c2.1,7.2,4.4,14.2,7.2,21.1c-1.6,1.3-3,2.7-4.5,4.3L127.3,233.5z M203.1,323.2
				c-16.1-10.9-30.4-23.7-42.8-38.1l6.9-3.3c2,2.6,4.1,5.1,6.3,7.6c1,1.2,2.1,2.4,3.2,3.6c9.2,10.1,19.3,19.3,30.4,27.6
				C205.8,321.4,204.5,322.3,203.1,323.2z"/>
			<path class="st5" d="M181.1,275.2l0.1,1.2c6.8-0.1,13.3-0.8,19.4-2.2c0-2.5,0-5.1-0.1-7.7l-2.8,1.2c-1.2-2.5-1.9-3.4-3.1-5.9
				l-1.9,5.2l-8.4,6.7L181.1,275.2z M205.2,264.4c0.1,3,0.2,5.9,0.2,8.6c6.3-1.6,11.9-3.2,16.8-5c0.3-3.2,1-6.9,2.2-11.2
				c-1.8,0.6-3.5,1.1-4.8,1.3c-0.9,0.1-1.7,0.1-2.4,0l-1.6,1.7C212.2,261.3,208.7,262.8,205.2,264.4z M201.5,170.8
				c-37.9,0-67.6,8.9-101.1,25.6c4.4,17.6,10.2,33.8,17.6,48.6c1.4-2.3,3-4.5,4.8-6.6c0.8-0.9,7.8-8.2,7.8-8.2
				c4.3-4.8,9.3-8.1,14.7-10.5c-3.7-5.3-7.1-10.8-9.9-16.7l-0.6-1.3c1.5-0.7,3-1.3,4.5-1.9l0.5,1.1c2.9,6,6.4,11.6,10.2,17
				c1.5-0.5,2.9-1,4.4-1.4c5-1.4,10-2.7,15-3.9c4.6-1.2,11.9-3.6,15.5,0.2l5.2-5.4l4-0.9c-1.2-7.9-2.4-15.1-3.5-20.8
				c1.6-0.2,3.2-0.5,4.9-0.6c1,5.6,2.2,12.6,3.4,20.4c5.7-1.2,11.4-2.5,17.2-3.6l-1.9,4.9l-0.2,0.5l5.8-6.1
				c5.8-1.1,11.6-2.2,17.4-3.2l-1,2.9c3-2.5,6.5-3.7,9.9-4.2l0.5-0.1c1-4.1,1.6-7.8,2-11.1c1.8,0.4,3.5,0.8,5.2,1.3
				c-0.2,2.9-0.7,5.9-1.3,8.9c3.6-0.6,7.2-1.1,10.8-1.6c-1.5,6-3,11.9-4.5,17.9l-7.2,7.6l6.1-1.9c-2,7.6-3.9,15.2-5.9,22.8l-7.8,8.2
				c-3.3,1.4-8.7,4-14,6.2c-1.5,4.5-2.4,8.3-2.9,11.5c17.9-7.2,27.1-16.4,37.1-32.1c-1.3,5.4-3,10.6-5.2,15.6
				c-8.3,9.9-17.8,16.5-32.3,22c-0.1,11.1,6.8,10.6,7.9,10.4c-1.8,1.5-3.7,3-5.7,4.4c-4.3-2-6.6-7.4-6.8-13.1
				c-5,1.7-10.5,3.3-16.7,4.8c-0.1,2.1-0.1,14.2-3.4,21.1c-2.6,0.7-5.2,1.3-7.9,1.8c0.5-0.5,1.2-1.1,1.8-1.8c0-0.1,0.1-0.2,0.2-0.3
				c2.8-2.8,4.1-10,4.5-19.8c-6,1.3-12.4,1.9-19,2.1c-0.1,5.3-2,9.1-4.8,11.6c-1.1-1.2-2.1-2.4-3.2-3.6c1.8-1.9,2.9-4.5,3.1-8
				c-2.3-0.1-4.8-0.2-7.4-0.4c-6.4,3-13.7,6.5-20.2,9.6c14.6,16.1,32,30.3,52.6,43c54.6-33.7,84.7-75.2,101.1-137.1
				C269,179.7,239.3,170.8,201.5,170.8z M92.3,192.7c36.3-18.7,68.1-28.8,109.2-28.8c41.1,0,72.9,10.2,109.1,28.8
				c-16.8,67.9-49,112.8-109.1,148.8c-22.7-13.6-42.5-29.5-59-48c-4.6,2.2-8.2,4-10.1,4.9c-5.7,2.8-11.4,5.7-17,8.5
				c-6.4,3.2-13.5,8.2-20.8,6.3c-8-3.5-2.7-13.3-0.3-18.8c6.2-14.1,12.8-28,19.5-41.8c-8.2-15.3-14.6-32-19.1-50L92.3,192.7z"/>
			<path class="st0" d="M246.3,199.4c-3.5,0.6-6.6,1.7-9.2,4.3c-2.1,2.3-3.3,5-4.2,7.9c-2.8,8.7-5.6,17.4-8.3,26.1
				c-1.1,3.4-2.9,9.7,2.6,9.2c1.9-0.3,3.7-1.1,5.4-1.8c5.6-2.4,11.2-4.7,16.8-7c1.4-5.5,2.8-10.9,4.2-16.4c-2.9,0.9-5.9,1.9-8.8,2.8
				c-0.7,2.5-1.4,4.9-2.1,7.4c-2,0.8-4.1,1.5-6.1,2.2c2.6-8.8,5.2-17.7,7.7-26.5c1.8-0.4,3.6-0.8,5.4-1.2c-0.4,1.5-0.8,3.1-1.3,4.6
				c2.6-0.6,5.3-1.3,7.9-1.9c1-4,2-8,3-11.9C255.1,198,250.7,198.7,246.3,199.4z M221.3,203.7c-6.2,8.2-12.4,16.4-18.5,24.7
				c2.9-7.6,5.7-15.1,8.6-22.7c-6.5,1.3-12.9,2.7-19.4,4.2c-1.7,3.9-3.3,7.8-5,11.7c1.4-0.4,2.8-0.8,4.2-1.2
				c-5.1,12.3-10,24.6-14.9,36.9c-2,5-4,10-5.9,15.1c6.5-3.1,12.9-6.1,19.4-9.1c2.9-8.1,5.9-16.2,8.9-24.3c2.8,5.5,5.5,11,8.2,16.6
				c4.2-1.9,8.4-3.7,12.6-5.5c-2.6-5.8-5.2-11.6-7.8-17.5c4.6-7,9.3-14.1,14.1-21.1c1.3-0.3,2.7-0.6,4-0.9c1-3,2-6.1,3-9.1
				C229,202.2,225.1,203,221.3,203.7z M144.2,271.4c-4.5,2-9,4-13.5,6.1c6.5-15.1,13.3-30.1,20.3-45c3.9-1.2,7.9-2.5,11.9-3.7
				C156.4,242.9,150.2,257.1,144.2,271.4z M154.9,219.3c-8.5,2.3-16.1,6-22.2,12.7c-3.5,4-6,8.6-8.3,13.3
				c-6.8,13.9-13.4,27.8-19.6,41.9c-1.6,3.7-6.6,12.6-1.3,14.9c5.9,1.5,13.3-3.4,18.5-6.1c5.7-2.9,11.3-5.7,17-8.6
				c9.7-4.8,18.4-10.6,24.3-20c2.3-4,4.1-8.2,5.8-12.4c3.7-9.1,7.5-18.2,11.3-27.3c1.4-3.4,4-7.7,3.2-11.4c-1.6-5-10-1.9-13.7-1
				C164.9,216.7,159.9,218,154.9,219.3z"/>
		</g>
	</g>
	<path class="st2" d="M270.3,191.9c2.5,0.9,5,1.7,7.5,2.7C275.3,193.6,272.8,192.8,270.3,191.9z M269.9,191.4
		c2.7,0.9,5.1,1.8,7.6,2.7c6.2,2.3,11.7,4.7,16.3,6.8c-14,48.2-42.8,88.6-83.3,117.3l-3.3,2.3c-11.9-8.9-18.9-15.9-18.9-15.9
		l5.6-0.9c17-2.8,33.3-10.5,46.8-23.1c23-21.5,32.4-52.2,27.6-81.1c-0.1-0.7-0.2-1.3-0.4-2l0-0.3l-0.1-0.3l-0.1-0.3l-0.1-0.3
		l-0.1-0.3l-0.1-0.3l-0.1-0.3l-0.1-0.3l-0.1-0.3l0-0.3l-0.1-0.4l-0.1-0.3l-0.1-0.3l0-0.3l-0.1-0.3c-0.3-1-0.5-1.9-0.7-2.8
		C267.4,190.6,268.7,191,269.9,191.4z"/>
</g>
</svg>
